<?xml version="1.0" encoding="utf-8"?>
<!-- Generator: Adobe Illustrator 25.0.1, SVG Export Plug-In . SVG Version: 6.00 Build 0)  -->
<svg version="1.1" id="Capa_1" xmlns="http://www.w3.org/2000/svg" xmlns:xlink="http://www.w3.org/1999/xlink" x="0px" y="0px"
	 viewBox="0 0 1200 1200" style="enable-background:new 0 0 1200 1200;" xml:space="preserve">
<style type="text/css">
	.st0{fill:#FFFFFF;}
</style>
<g>
	<g>
		<polygon class="st0" points="189.8,725 30.4,725 17.7,712.3 17.7,487.7 39.4,478.7 242.4,681.7 242.4,500.4 126.2,500.4 
			193.4,567.6 193.4,523.9 218.8,523.9 218.8,598.2 197.2,607.2 86.7,496.6 95.6,475 255,475 267.7,487.7 267.7,712.3 246.1,721.3 
			43.1,518.3 43.1,699.6 159.2,699.6 92,632.4 92,676.1 66.6,676.1 66.6,601.8 88.3,592.8 198.8,703.4 		"/>
	</g>
	<g>
		<g>
			<path class="st0" d="M341.5,525.2h73.1c27,0,44.6,12.2,44.6,37.3c0,15.2-7.8,26.1-21.5,32v0.4c18.3,4,28.2,18.3,28.2,38.8
				c0,23.6-16.4,41.9-55.4,41.9h-69.1V525.2z M367.8,588.2h43c12.6,0,22.1-7.4,22.1-20.8c0-15.2-7.8-20.6-22.1-20.6h-43V588.2z
				 M367.8,654.1h46.5c16,0,25.3-8.6,25.3-23.8c0-14.7-9.3-23.2-25.3-23.2h-46.5V654.1z"/>
			<path class="st0" d="M529.6,525.2h28l57.9,150.4h-28.2l-14.1-39.8h-60l-14.1,39.8h-27.2L529.6,525.2z M520.4,615.8h45.9
				l-22.5-64.7h-0.6L520.4,615.8z"/>
			<path class="st0" d="M631.3,525.2h26.3v127.6h76.4v22.7H631.3V525.2z"/>
			<path class="st0" d="M801.3,525.2h28l57.9,150.4H859l-14.1-39.8h-60l-14.1,39.8h-27.2L801.3,525.2z M792,615.8h45.9l-22.5-64.7
				h-0.6L792,615.8z"/>
			<path class="st0" d="M904.6,525.2h27.8L1001,636h0.4V525.2h25.1v150.4h-27.8L930.2,565h-0.6v110.6h-25.1V525.2z"/>
			<path class="st0" d="M1155.7,573c-4.4-17.3-15.6-29.9-37.5-29.9c-32.2,0-45.7,28.4-45.7,57.3c0,28.9,13.5,57.3,45.7,57.3
				c23.4,0,36.2-17.5,38.3-39.4h25.7c-2.1,36-27.6,60.9-64,60.9c-45.1,0-72-35.8-72-78.8c0-43,27-78.8,72-78.8
				c33.9,0.2,60.7,19,63.8,51.4H1155.7z"/>
		</g>
	</g>
</g>
</svg>
