<?xml version="1.0" encoding="utf-8"?>
<!-- Generator: Adobe Illustrator 25.0.1, SVG Export Plug-In . SVG Version: 6.00 Build 0)  -->
<svg version="1.1" id="Capa_1" xmlns="http://www.w3.org/2000/svg" xmlns:xlink="http://www.w3.org/1999/xlink" x="0px" y="0px"
	 viewBox="0 0 170.1 32" style="enable-background:new 0 0 170.1 32;" xml:space="preserve">
<style type="text/css">
	.st0{fill:#FFFFFF;}
</style>
<g>
	<polygon class="st0" points="1.1,32 1.1,28.4 22.3,28.4 22.3,10.7 11.7,10.7 11.7,17.8 8.2,17.8 8.2,14.2 8.2,7.1 22.3,7.1 
		25.8,7.1 25.8,14.2 25.8,28.4 25.8,32 	"/>
	<polygon class="st0" points="1.1,0 32.8,0 32.8,28.4 32.8,32 29.3,32 29.3,28.4 29.3,3.6 4.6,3.6 4.6,21.3 15.2,21.3 15.2,14.2 
		18.7,14.2 18.7,21.3 18.7,24.9 18.7,24.9 4.6,24.9 1.1,24.9 1.1,21.3 	"/>
	<path class="st0" d="M47,7.1h3.3L57,24.9h-3.3L52,20.2h-7l-1.7,4.7h-3.2L47,7.1z M45.9,17.8h5.4l-2.6-7.6h-0.1L45.9,17.8z"/>
	<path class="st0" d="M54.8,7.1h14.3v2.7h-5.6v15.1h-3.1V9.8h-5.6C54.8,9.8,54.8,7.1,54.8,7.1z"/>
	<path class="st0" d="M72.4,7.1h3.1v7.1h8V7.1h3.1v17.8h-3.1v-8h-8v8h-3.1V7.1z"/>
	<path class="st0" d="M90.1,7.1h12.7v2.7h-9.6v4.7h8.9V17h-8.9v5.2h9.8v2.7H90.1V7.1z"/>
	<path class="st0" d="M106.5,7.1h3.3l8,13.1l0,0V7.1h2.9v17.8h-3.3l-8-13.1h-0.1v13.1h-2.9L106.5,7.1L106.5,7.1z"/>
	<path class="st0" d="M124.4,7.1h7.3c5.4,0,7.8,4,7.8,8.9s-2.3,8.9-7.8,8.9h-7.3C124.4,24.9,124.4,7.1,124.4,7.1z M127.5,22.3h3
		c4.8,0,5.9-2.8,5.9-6.3s-1-6.3-5.9-6.3h-3V22.3z"/>
	<path class="st0" d="M146.8,7.1h3.3l6.8,17.8h-3.3l-1.7-4.7h-7l-1.7,4.7H140L146.8,7.1z M145.8,17.8h5.4l-2.6-7.6h-0.1L145.8,17.8z
		"/>
	<path class="st0" d="M154.7,7.1H169v2.7h-5.6v15.1h-3.1V9.8h-5.6L154.7,7.1z"/>
</g>
</svg>
