<?xml version="1.0" encoding="utf-8"?>
<!-- Generator: Adobe Illustrator 25.4.1, SVG Export Plug-In . SVG Version: 6.00 Build 0)  -->
<svg version="1.1" id="Capa_1" xmlns="http://www.w3.org/2000/svg" xmlns:xlink="http://www.w3.org/1999/xlink" x="0px" y="0px"
	 viewBox="0 0 124.3 23.5" style="enable-background:new 0 0 124.3 23.5;" xml:space="preserve">
<style type="text/css">
	.st0{fill:#FFFFFF;}
</style>
<polygon class="st0" points="0.5,23.5 0.5,20.9 16.1,20.9 16.1,7.8 8.3,7.8 8.3,13 5.7,13 5.7,10.4 5.7,5.2 16.1,5.2 18.7,5.2 
	18.7,10.4 18.7,20.9 18.7,23.5 "/>
<polygon class="st0" points="0.5,0 23.8,0 23.8,20.9 23.8,23.5 21.3,23.5 21.3,20.9 21.3,2.6 3.1,2.6 3.1,15.7 10.9,15.7 10.9,10.4 
	13.5,10.4 13.5,15.7 13.5,18.3 13.5,18.3 3.1,18.3 0.5,18.3 0.5,15.7 "/>
<path class="st0" d="M34.2,5.2h2.4l5,13.1h-2.4L38,14.8h-5.2l-1.2,3.5h-2.3L34.2,5.2z M33.4,13.1h4l-1.9-5.6h-0.1L33.4,13.1z"/>
<path class="st0" d="M40,5.2h10.5v2h-4.1v11.1h-2.3V7.2H40V5.2z"/>
<path class="st0" d="M52.9,5.2h2.3v5.2H61V5.2h2.3v13.1H61v-5.9h-5.9v5.9h-2.3V5.2H52.9z"/>
<path class="st0" d="M65.9,5.2h9.3v2h-7.1v3.4h6.5v1.9h-6.5v3.8h7.2v2h-9.4V5.2z"/>
<path class="st0" d="M78,5.2h2.4l5.9,9.6l0,0V5.2h2.2v13.1h-2.4l-5.9-9.6h-0.1v9.6H78V5.2z"/>
<path class="st0" d="M91.1,5.2h5.4c4,0,5.7,2.9,5.7,6.5s-1.7,6.5-5.7,6.5h-5.4V5.2z M93.3,16.4h2.2c3.6,0,4.3-2,4.3-4.7S99,7,95.5,7
	h-2.2V16.4z"/>
<path class="st0" d="M107.6,5.2h2.4l5,13.1h-2.4l-1.2-3.5h-5.2l-1.2,3.5h-2.3L107.6,5.2z M106.8,13.1h4l-1.9-5.6h-0.1L106.8,13.1z"
	/>
<path class="st0" d="M113.3,5.2h10.5v2h-4.1v11.1h-2.3V7.2h-4.1V5.2z"/>
</svg>
