<?xml version="1.0" encoding="utf-8"?>
<!-- Generator: Adobe Illustrator 28.0.0, SVG Export Plug-In . SVG Version: 6.00 Build 0)  -->
<svg version="1.1" id="Capa_1" xmlns="http://www.w3.org/2000/svg" xmlns:xlink="http://www.w3.org/1999/xlink" x="0px" y="0px"
	 viewBox="0 0 137 32" style="enable-background:new 0 0 137 32;" xml:space="preserve">
<style type="text/css">
	.st0{fill:#209569;}
</style>
<g>
	<g>
		<polygon class="st0" points="20.3,30.7 1.6,30.7 0.1,29.2 0.1,2.8 2.6,1.8 26.5,25.6 26.5,4.3 12.8,4.3 20.7,12.2 20.7,7.1 
			23.7,7.1 23.7,15.8 21.2,16.8 8.2,3.9 9.2,1.3 28,1.3 29.5,2.8 29.5,29.2 26.9,30.2 3.1,6.4 3.1,27.7 16.7,27.7 8.8,19.8 
			8.8,24.9 5.8,24.9 5.8,16.2 8.4,15.2 21.4,28.1 		"/>
	</g>
	<g>
		<g>
			<path class="st0" d="M38.1,7.2h8.6c3.2,0,5.2,1.4,5.2,4.4c0,1.8-0.9,3.1-2.5,3.8l0,0c2.2,0.5,3.3,2.2,3.3,4.6
				c0,2.8-1.9,4.9-6.5,4.9h-8.1V7.2z M41.2,14.6h5c1.5,0,2.6-0.9,2.6-2.4c0-1.8-0.9-2.4-2.6-2.4h-5V14.6z M41.2,22.4h5.5
				c1.9,0,3-1,3-2.8c0-1.7-1.1-2.7-3-2.7h-5.5V22.4z"/>
			<path class="st0" d="M60.2,7.2h3.3l6.8,17.7H67l-1.7-4.7h-7.1l-1.7,4.7h-3.2L60.2,7.2z M59.1,17.9h5.4l-2.6-7.6h-0.1L59.1,17.9z"
				/>
			<path class="st0" d="M72.2,7.2h3.1v15h9v2.7H72.2V7.2z"/>
			<path class="st0" d="M92.2,7.2h3.3l6.8,17.7H99l-1.7-4.7h-7.1l-1.7,4.7h-3.2L92.2,7.2z M91.1,17.9h5.4l-2.6-7.6h-0.1L91.1,17.9z"
				/>
			<path class="st0" d="M104.3,7.2h3.3l8.1,13l0,0v-13h2.9v17.7h-3.3l-8-13h-0.1v13h-2.9V7.2z"/>
			<path class="st0" d="M133.8,12.8c-0.5-2-1.8-3.5-4.4-3.5c-3.8,0-5.4,3.3-5.4,6.7s1.6,6.7,5.4,6.7c2.7,0,4.3-2.1,4.5-4.6h3
				c-0.2,4.2-3.2,7.2-7.5,7.2c-5.3,0-8.5-4.2-8.5-9.3c0-5,3.2-9.3,8.5-9.3c4,0,7.1,2.2,7.5,6h-3.1V12.8z"/>
		</g>
	</g>
</g>
</svg>
