<?xml version="1.0" encoding="utf-8"?>
<!-- Generator: Adobe Illustrator 25.0.1, SVG Export Plug-In . SVG Version: 6.00 Build 0)  -->
<svg version="1.1" id="Capa_1" xmlns="http://www.w3.org/2000/svg" xmlns:xlink="http://www.w3.org/1999/xlink" x="0px" y="0px"
	 viewBox="0 0 358 357" style="enable-background:new 0 0 358 357;" xml:space="preserve">
<style type="text/css">
	.st0{fill:#264D3A;}
	.st1{fill:#1F3D31;}
	.st2{fill:#5AF6C2;}
	.st3{opacity:0.2;}
	.st4{opacity:0.2;enable-background:new    ;}
	.st5{fill:#1D3A35;}
	.st6{fill:#374F4D;}
	.st7{fill:#263838;}
	.st8{fill:#456164;}
	.st9{opacity:0.15;enable-background:new    ;}
	.st10{opacity:0.7;fill:#1D3A35;enable-background:new    ;}
	.st11{opacity:0.8;fill:#456164;enable-background:new    ;}
	.st12{fill:#223F45;}
	.st13{opacity:0.3;enable-background:new    ;}
	.st14{opacity:0.4;enable-background:new    ;}
	.st15{opacity:0.5;enable-background:new    ;}
	.st16{fill:#314F59;}
	.st17{opacity:0.8;fill:#314F59;enable-background:new    ;}
	.st18{fill:#81ABC0;}
	.st19{opacity:0.3;}
	.st20{opacity:0.1;enable-background:new    ;}
	.st21{opacity:0.3;fill:#1D3A35;enable-background:new    ;}
	.st22{opacity:0.4;fill:#1D3A35;enable-background:new    ;}
	.st23{fill:#FFA8A7;}
	.st24{fill:#F5F5F5;}
	.st25{fill:#A7DAFF;}
	.st26{fill:#F28F8F;}
</style>
<path class="st0" d="M178.9,356.5c98.7,0,178.7-46.2,178.7-103.2s-80-103.2-178.7-103.2c-98.7,0-178.7,46.2-178.7,103.2
	S80.1,356.5,178.9,356.5z"/>
<path class="st1" d="M236.1,280.5c0-1.8-0.5-3.5-1.4-5c-0.2-0.3-0.4-0.6-0.6-0.9l0,0c-0.2-0.3-0.4-0.6-0.7-0.8l-0.1-0.1
	c-0.2-0.2-0.5-0.5-0.7-0.7l-0.1-0.1c-0.2-0.2-0.5-0.4-0.8-0.6l-0.5-0.3l-0.2-0.1l-0.2-0.1c-0.1,0-0.2-0.1-0.3-0.1h-0.1
	c-0.1,0-0.3-0.1-0.4-0.1c-0.5-0.1-1,0-1.5,0.2c-4.1,2-27.6,17-38.4,23.8l-5.4,3.3c-0.2,0.1-0.3,0.2-0.4,0.4c0,0,0,0,0,0.1
	c0,0.1-0.1,0.2-0.1,0.2c0,0.1,0,0.1-0.1,0.2c0,0.1,0,0.1-0.1,0.2v0.1l-0.9,0.5l-0.8,0.4c-1.8-1.8-3.9-3.3-6.1-4.5
	c-7.4-4.3-17.3-6.6-27.7-6.6c-10.4,0-20.3,2.4-27.7,6.6c-7.7,4.4-11.9,10.4-11.9,16.9c0,6.4,4.2,12.4,11.9,16.9
	c7.4,4.3,17.3,6.6,27.7,6.6c10.4,0,20.3-2.4,27.7-6.6c7.7-4.4,11.9-10.4,11.9-16.9c0-3-0.9-5.9-2.5-8.3l0.7-0.4
	c0.2,0.2,0.5,0.2,0.8,0.3c0.3,0,0.5,0,0.8-0.1c3.7-2,39.5-17.3,46.8-21.2C235.4,283,236,282,236.1,280.5z M172.7,324.3
	c-6.4,3.7-15,5.7-24.3,5.7c-9.3,0-17.9-2-24.3-5.7c-5.5-3.2-8.5-7.1-8.5-11s3-7.8,8.5-11c6.4-3.7,15-5.7,24.3-5.7
	c9.3,0,17.9,2,24.3,5.7c5.5,3.2,8.5,7.1,8.5,11C181.3,317.2,178.2,321.1,172.7,324.3L172.7,324.3z"/>
<path class="st1" d="M241.5,189.8l-36.3-21c-1-0.5-2.2-0.8-3.3-0.8c-1.2,0-2.3,0.3-3.3,0.8L13.9,275.3c-1.8,1.1-1.8,2.8,0,3.9
	l36.3,21c1,0.5,2.2,0.8,3.3,0.8c1.2,0,2.3-0.3,3.3-0.8l69.2-39.9l10.6,6.2c5.6,3.2,14.8,3.2,20.4,0l31.7-18.2
	c5.6-3.2,5.6-8.5,0-11.8l-10.6-6.2l63.3-36.7C243.4,192.6,243.4,190.9,241.5,189.8z"/>
<path class="st1" d="M302.5,289.3c19.7,0,35.6-9.2,35.6-20.6c0-11.4-16-20.6-35.6-20.6c-19.7,0-35.6,9.2-35.6,20.6
	C266.8,280.1,282.8,289.3,302.5,289.3z"/>
<path class="st2" d="M322.7,245.5c0-4.8-1-13.7,3.1-22c3-6,8.3-11.9,13.2-11.3c4.6,0.5,5,7.6,0.6,12.4c-4.4,4.8-10,11.5-11.2,22.2
	l-3.2,7.9L322.7,245.5z"/>
<g class="st3">
	<path class="st4" d="M322.7,245.5c0-4.8-1-13.7,3.1-22c3-6,8.3-11.9,13.2-11.3c4.6,0.5,5,7.6,0.6,12.4c-4.4,4.8-10,11.5-11.2,22.2
		l-3.2,7.9L322.7,245.5z"/>
</g>
<path class="st5" d="M324.4,248.9c0.1,0,0.2-0.1,0.2-0.1c0-0.1,0.1-0.1,0.1-0.2c-0.6-13.7,3.9-25.1,12.9-32.9c0,0,0.1-0.1,0.1-0.1
	c0,0,0-0.1,0-0.1c0,0,0-0.1,0-0.1c0,0,0-0.1-0.1-0.1s-0.1-0.1-0.1-0.1c0,0-0.1,0-0.1,0c0,0-0.1,0-0.1,0c0,0-0.1,0-0.1,0.1
	c-9.2,8-13.7,19.5-13.1,33.5c0,0.1,0,0.2,0.1,0.2C324.1,248.9,324.2,248.9,324.4,248.9L324.4,248.9z"/>
<path class="st2" d="M321.8,262.8c2.6,1.5,5.5,2.3,8.5,2.4c5.2,0.1,7.1-2.6,7.1-2.6s-2.6-4.5-5.7-5.4c3.2,0.3,6.3,1.1,9.3,2.4
	c0,0,3.1-0.4,3.7-5.2c0,0-2.2-2.6-8.5-3.3c3-1,6.1-1.2,9.2-0.8c0.4,0.1,1.3-6.2,1.5-9.1c0.1-2.9-1-2.7-3.3-3
	c-2.3-0.3-9.8,0.3-11,1.7c-1.2,1.4-1.4,5.6-1.4,5.6s-1.6-2.2-1.6-4.3c-1.6-0.2-3.2,0.1-4.6,0.8c-2.3,1.2-3.1,2.1-3.2,3.9
	c-0.1,1.8-0.3,4.5,0.5,6.6c0,0-2.1-3.5-2-6.4c-0.9,1.4-1.6,2.9-2.2,4.5C316.9,253.2,318.1,259.5,321.8,262.8z"/>
<path class="st5" d="M321.9,263.1c0.1,0,0.1,0,0.1-0.1c0,0,0.1-0.1,0.1-0.1c2.9-9,16.8-20.8,22-22.7c0,0,0.1,0,0.1-0.1
	c0,0,0.1-0.1,0.1-0.1c0,0,0-0.1,0-0.1c0,0,0-0.1,0-0.1c0,0,0-0.1-0.1-0.1c0,0-0.1-0.1-0.1-0.1c0,0-0.1,0-0.1,0c0,0-0.1,0-0.1,0
	c-5.4,1.8-19.5,13.9-22.5,23.1c0,0.1,0,0.2,0,0.3c0,0.1,0.1,0.1,0.2,0.2C321.8,263.1,321.9,263.1,321.9,263.1z"/>
<path class="st6" d="M157.1,263.5l27.3-15.8c2.8-1.6,4.2-3.8,4.2-5.9c0-2.1,0-3.8,0-3.8L163,223.4c-0.8-0.5-1.4-1.2-1.9-2
	c-0.5-0.8-0.7-1.7-0.8-2.7V185l-47.6,27.6v33.7c0.1,0.9,0.3,1.9,0.8,2.7c0.5,0.8,1.1,1.5,1.9,2l21.4,12.5
	C142.4,266.7,151.5,266.7,157.1,263.5z"/>
<path class="st7" d="M124,252.2v3.8l-8.7-5c-0.8-0.5-1.4-1.2-1.9-2c-0.5-0.8-0.7-1.7-0.8-2.7v-33.7l9.1-5.2c0.2,2.3,0.4,4.7,0.6,7
	l-6.4,3.7v26.3c0,0.9,0.3,1.9,0.8,2.7c0.5,0.8,1.1,1.5,1.9,2L124,252.2z"/>
<path class="st8" d="M115.9,244.3c0.1,0.9,0.3,1.9,0.8,2.7c0.5,0.8,1.1,1.5,1.9,2l18.2,10.6c5.6,3.2,14.8,3.2,20.4,0l27.3-15.8
	c5.6-3.3,5.6-8.5,0-11.8l-18.2-10.6c-0.8-0.5-1.5-1.2-1.9-2c-0.5-0.8-0.7-1.7-0.8-2.7v-26.3L115.9,218V244.3z"/>
<path class="st9" d="M171.8,224.7l-5.5-3.2c-0.8-0.5-1.5-1.2-1.9-2c-0.5-0.8-0.7-1.7-0.8-2.7v-26.3L115.9,218v26.3
	c0.1,0.9,0.3,1.9,0.8,2.7c0.5,0.8,1.1,1.5,1.9,2l5.4,3.1L171.8,224.7z"/>
<path class="st6" d="M188.7,238v3.8c0,2.1-1.4,4.3-4.2,5.9l-27.3,15.8c-3,1.6-6.3,2.4-9.7,2.4v-3.8c3.4,0,6.7-0.8,9.7-2.4l27.3-15.8
	C187.3,242.2,188.7,240.1,188.7,238z"/>
<path class="st8" d="M39.3,280.6c1,0.5,2.2,0.7,3.3,0.7c1.1,0,2.3-0.3,3.3-0.8L230.4,174c1-0.6,1.8-1.5,2.4-2.5c0.6-1,0.9-2.2,1-3.3
	V6.7c0-1.1-0.4-2.3-0.9-3.3s-1.3-1.9-2.3-2.5c-1-0.5-2.2-0.7-3.3-0.7c-1.1,0-2.3,0.3-3.3,0.8L39.5,107.6c-1,0.6-1.8,1.5-2.4,2.5
	c-0.6,1-0.9,2.2-1,3.3v161.4c0,1.1,0.4,2.3,0.9,3.3C37.5,279.1,38.3,280,39.3,280.6z"/>
<path class="st6" d="M45.9,280.5L230.4,174c1-0.6,1.8-1.5,2.4-2.5c0.6-1,0.9-2.2,1-3.3V6.7c0-2.2-1.5-3-3.4-2L45.9,111.2
	c-1,0.6-1.8,1.5-2.4,2.5c-0.6,1-0.9,2.2-1,3.3v161.4C42.5,280.7,44,281.6,45.9,280.5z"/>
<path class="st2" d="M48.8,257.2v-138c0-0.7,0.2-1.4,0.6-2s0.8-1.1,1.4-1.5L225.3,15c1.1-0.6,2-0.1,2,1.2v138c0,0.7-0.2,1.4-0.6,2
	c-0.4,0.6-0.9,1.1-1.4,1.5L50.8,258.4C49.7,259.1,48.8,258.5,48.8,257.2z"/>
<path class="st10" d="M48.8,257.2v-138c0-0.7,0.2-1.4,0.6-2s0.8-1.1,1.4-1.5L225.3,15c1.1-0.6,2-0.1,2,1.2v138c0,0.7-0.2,1.4-0.6,2
	c-0.4,0.6-0.9,1.1-1.4,1.5L50.8,258.4C49.7,259.1,48.8,258.5,48.8,257.2z"/>
<path class="st2" d="M137.7,220.7c-0.4,0-0.7-0.1-1-0.3c-0.4-0.3-0.7-0.6-0.9-1c-0.2-0.4-0.3-0.9-0.2-1.4c0.1-1.2,0.4-2.3,1-3.3
	c0.6-1,1.4-1.9,2.4-2.5c0.4-0.3,0.8-0.5,1.3-0.5s0.9,0.1,1.4,0.3c0.4,0.2,0.7,0.6,0.9,1c0.2,0.4,0.3,0.9,0.2,1.4
	c-0.1,1.2-0.4,2.3-1,3.3c-0.6,1-1.4,1.9-2.4,2.5C138.9,220.5,138.3,220.7,137.7,220.7z M140.6,212.5c-0.4,0-0.9,0.2-1.2,0.4
	c-0.9,0.6-1.6,1.3-2.1,2.2c-0.5,0.9-0.8,1.9-0.9,3c-0.1,0.3-0.1,0.7,0,1c0.1,0.3,0.4,0.6,0.7,0.8s0.7,0.2,1,0.2
	c0.3-0.1,0.7-0.2,0.9-0.5c0.9-0.6,1.6-1.3,2.1-2.2c0.5-0.9,0.8-1.9,0.9-3c0-0.3,0-0.7-0.2-1s-0.3-0.6-0.6-0.8
	C141,212.6,140.8,212.5,140.6,212.5z"/>
<path class="st0" d="M257.6,40.9L78,144.6V277c0,0.4,0.1,0.8,0.3,1.1c0.2,0.3,0.5,0.6,0.8,0.8c0.3,0.2,0.7,0.3,1.1,0.3
	c0.4,0,0.8-0.1,1.1-0.3l3.2-1.8l169.7-97.8c1-0.6,1.8-1.5,2.4-2.5c0.6-1,0.9-2.1,1-3.3V40.9z"/>
<path class="st1" d="M256.9,42.3v131.2c-0.1,1-0.4,2-0.9,2.9c-0.5,0.9-1.2,1.7-2.1,2.2L84.2,276.4l-3.2,1.8
	c-0.2,0.1-0.5,0.2-0.8,0.2c-0.4,0-0.8-0.2-1.1-0.4c-0.1-0.1-0.3-0.3-0.3-0.5c-0.1-0.2-0.1-0.4-0.1-0.6V145L256.9,42.3L256.9,42.3z
	 M257.6,41L78,144.6V277c0,0.6,0.2,1.2,0.7,1.6c0.4,0.4,1,0.7,1.6,0.7c0.4,0,0.8-0.1,1.1-0.3l3.2-1.8l169.6-97.8
	c1-0.6,1.8-1.5,2.4-2.5c0.6-1,0.9-2.1,1-3.3L257.6,41L257.6,41z"/>
<path class="st11" d="M253.4,38.5L73.7,142.1l4.3,2.5L257.6,40.9L253.4,38.5z"/>
<path class="st12" d="M79.2,279c-0.4-0.2-0.7-0.5-0.9-0.8c-0.2-0.4-0.3-0.8-0.3-1.2V144.6l-4.3-2.5v131.6c0,0.2,0,0.3,0,0.5
	c0.1,0.5,0.3,1,0.6,1.5c0.3,0.4,0.7,0.8,1.2,1.1l3.5,2L79.2,279L79.2,279z"/>
<path class="st2" d="M73.7,142.1v-8.9c0-0.6,0.2-1.1,0.5-1.6c0.3-0.5,0.7-0.9,1.2-1.3L251.7,28.6c0.5-0.3,1.1-0.4,1.7-0.4
	c0.6,0,1.2,0.1,1.7,0.4l0.9,0.5c0.5,0.3,0.9,0.7,1.2,1.2c0.3,0.5,0.5,1.1,0.5,1.6V41L78,144.6L73.7,142.1z"/>
<path class="st13" d="M73.7,142.1v-8.9c0-0.6,0.2-1.1,0.5-1.6c0.3-0.5,0.7-0.9,1.2-1.3L251.7,28.6c0.5-0.3,1.1-0.4,1.7-0.4
	c0.6,0,1.2,0.1,1.7,0.4l0.9,0.5c0.5,0.3,0.9,0.7,1.2,1.2c0.3,0.5,0.5,1.1,0.5,1.6V41L78,144.6L73.7,142.1z"/>
<path class="st2" d="M78,135.7c0-0.6,0.2-1.1,0.5-1.7c0.3-0.5,0.7-0.9,1.2-1.3L256,31.1c0.9-0.5,1.7-0.1,1.7,1v9L78,144.6V135.7z"/>
<path class="st14" d="M78,135.7c0-0.6,0.2-1.1,0.5-1.7c0.3-0.5,0.7-0.9,1.2-1.3L256,31.1c0.9-0.5,1.7-0.1,1.7,1v9L78,144.6V135.7z"
	/>
<path class="st2" d="M78.5,134c-0.3,0.5-0.5,1.1-0.5,1.7v8.9l-4.3-2.5v-8.9c0-0.6,0.2-1.1,0.5-1.6L78.5,134z"/>
<path class="st15" d="M78.5,134c-0.3,0.5-0.5,1.1-0.5,1.7v8.9l-4.3-2.5v-8.9c0-0.6,0.2-1.1,0.5-1.6L78.5,134z"/>
<path class="st16" d="M249.8,40.6c0,1,0.7,1.4,1.5,0.9c0.5-0.3,0.8-0.7,1.1-1.2c0.3-0.5,0.4-1,0.4-1.5c0-1-0.7-1.4-1.5-0.9
	c-0.5,0.3-0.8,0.7-1.1,1.2C250,39.5,249.8,40.1,249.8,40.6z"/>
<path class="st16" d="M243.5,44.2c0,1,0.7,1.4,1.5,0.9c0.5-0.3,0.8-0.7,1.1-1.2c0.3-0.5,0.4-1,0.4-1.5c0-1-0.7-1.4-1.5-0.9
	c-0.5,0.3-0.8,0.7-1.1,1.2C243.7,43.1,243.6,43.7,243.5,44.2z"/>
<path class="st16" d="M237.3,47.9c0,1,0.7,1.4,1.5,0.9c0.5-0.3,0.8-0.7,1.1-1.2c0.3-0.5,0.4-1,0.4-1.5c0-1-0.7-1.4-1.5-0.9
	c-0.5,0.3-0.8,0.7-1.1,1.2C237.4,46.8,237.3,47.3,237.3,47.9z"/>
<path class="st16" d="M78,144.6V277c0,0.4,0.1,0.8,0.3,1.1c0.2,0.3,0.5,0.6,0.8,0.8c0.3,0.2,0.7,0.3,1.1,0.3c0.4,0,0.8-0.1,1.1-0.3
	l3.2-1.8l39.3-22.6V118.1L78,144.6z"/>
<path class="st16" d="M127,120.4v128.5l126.9-73.2V47.1L127,120.4z"/>
<path class="st2" d="M113.4,133.7l-29.3,16.9c-0.3,0.2-0.5,0.4-0.7,0.7c-0.2,0.3-0.3,0.6-0.3,1v3.1c0,0.6,0.4,0.9,1,0.6l29.3-16.9
	c0.3-0.2,0.5-0.4,0.7-0.7c0.2-0.3,0.3-0.6,0.3-1v-3C114.4,133.6,113.9,133.4,113.4,133.7z"/>
<path class="st17" d="M113.4,133.7l-29.3,16.9c-0.3,0.2-0.5,0.4-0.7,0.7c-0.2,0.3-0.3,0.6-0.3,1v3.1c0,0.6,0.4,0.9,1,0.6l29.3-16.9
	c0.3-0.2,0.5-0.4,0.7-0.7c0.2-0.3,0.3-0.6,0.3-1v-3C114.4,133.6,113.9,133.4,113.4,133.7z"/>
<path class="st8" d="M119.9,134.9L119,134c0.2-0.4,0.3-0.9,0.3-1.4c0-0.3,0-0.6-0.1-0.8c-0.1-0.3-0.3-0.5-0.5-0.7
	c-0.2-0.1-0.3-0.1-0.5-0.1c-0.2,0-0.4,0.1-0.5,0.2c-0.4,0.3-0.8,0.8-1,1.2s-0.4,1-0.3,1.6c0,0.3,0,0.6,0.1,0.8
	c0.1,0.3,0.3,0.5,0.5,0.7c0.1,0.1,0.3,0.1,0.5,0.1c0.2,0,0.4-0.1,0.6-0.2c0.3-0.2,0.6-0.5,0.8-0.8l0.7,0.7c0,0,0.1,0.1,0.1,0.1
	c0,0,0.1,0,0.1,0c0,0,0.1,0,0.1,0c0,0,0.1,0,0.1-0.1c0,0,0.1-0.1,0.1-0.1c0,0,0-0.1,0-0.1c0,0,0-0.1,0-0.1
	C120,134.9,119.9,134.9,119.9,134.9z M117.6,134.9c-0.1,0-0.1,0.1-0.2,0.1c-0.1,0-0.1,0-0.2,0c-0.1-0.1-0.3-0.4-0.3-0.9
	c0-0.4,0.1-0.8,0.3-1.2c0.2-0.4,0.4-0.7,0.8-1c0.1,0,0.2-0.1,0.2-0.1c0,0,0.1,0,0.1,0c0.1,0.1,0.3,0.4,0.3,0.9
	c0,0.4-0.1,0.9-0.2,1.2C118.2,134.3,117.9,134.6,117.6,134.9L117.6,134.9z"/>
<path class="st8" d="M83.8,164.8l-0.7,0.4c0,0-0.1,0-0.1-0.1v-1.8c0,0,0-0.1,0-0.1c0,0,0,0,0.1-0.1l0.7-0.4c0,0,0.1,0,0.1,0.1v1.8
	C83.9,164.7,83.9,164.8,83.8,164.8C83.9,164.8,83.9,164.8,83.8,164.8z"/>
<path class="st8" d="M84.8,164.3l-0.7,0.4c0,0-0.1,0-0.1-0.1v-1.8c0,0,0-0.1,0-0.1c0,0,0,0,0.1-0.1l0.7-0.4c0,0,0.1,0,0.1,0v1.8
	C84.9,164.2,84.9,164.2,84.8,164.3C84.9,164.2,84.8,164.3,84.8,164.3z"/>
<path class="st8" d="M85.8,163.7l-0.7,0.4c0,0-0.1,0-0.1-0.1v-1.8c0,0,0-0.1,0-0.1c0,0,0,0,0-0.1l0.7-0.4c0,0,0.1,0,0.1,0.1v1.8
	C85.9,163.6,85.9,163.6,85.8,163.7C85.8,163.7,85.8,163.7,85.8,163.7z"/>
<path class="st8" d="M83.8,167.1l-0.7,0.4c0,0-0.1,0-0.1-0.1v-1.8c0,0,0-0.1,0-0.1c0,0,0,0,0.1-0.1l0.7-0.4c0,0,0.1,0,0.1,0.1v1.8
	C83.9,167,83.9,167.1,83.8,167.1C83.9,167.1,83.9,167.1,83.8,167.1z"/>
<path class="st8" d="M84.8,166.6l-0.7,0.4c0,0-0.1,0-0.1-0.1v-1.8c0,0,0-0.1,0-0.1c0,0,0,0,0.1-0.1l0.7-0.3c0,0,0.1,0,0.1,0
	L84.8,166.6C84.9,166.5,84.8,166.5,84.8,166.6z"/>
<path class="st8" d="M85.8,166l-0.7,0.4c0,0-0.1,0-0.1-0.1v-1.8c0,0,0-0.1,0-0.1s0,0,0-0.1l0.7-0.4c0,0,0.1,0,0.1,0.1v1.8
	C85.9,165.9,85.9,165.9,85.8,166C85.8,166,85.8,166,85.8,166z"/>
<path class="st8" d="M83.9,173.2l-0.8-0.5c0,0,0-0.1,0-0.1l0.8-1.4c0-0.1,0.1-0.1,0.1,0v1.9C84,173.1,84,173.2,83.9,173.2z"/>
<path class="st8" d="M83.6,172.1l1.1-0.6v0.5l-1.1,0.6c-0.1,0.1-0.2,0-0.2-0.2c0-0.1,0-0.1,0-0.2S83.5,172.1,83.6,172.1z"/>
<path class="st8" d="M84.9,171.4l0.4-0.2v0.5l-0.4,0.2V171.4z"/>
<path class="st8" d="M86.2,170.8v1.9c0,0.1,0,0.1,0,0.2c0,0.1-0.1,0.1-0.1,0.2c-0.1,0.1-0.2,0-0.2-0.2v-1.6l-0.4,0.3V171l0.6-0.4
	C86.1,170.6,86.2,170.7,86.2,170.8z"/>
<path class="st8" d="M84.3,177.4c-0.4,0.4-0.7,0.8-0.9,1.4c-0.2,0.5-0.3,1.1-0.2,1.6c0.1,1,0.7,0.9,0.8,1.4c0,0.1,0,0.1,0.1,0.1
	l0.7-0.4c0,0,0,0,0.1-0.1c0,0,0,0,0-0.1c0.1-0.6,0.8-1.3,0.8-2.8C85.6,177.4,85,176.9,84.3,177.4z"/>
<path class="st8" d="M84.7,182.6L84,183c0,0-0.1,0-0.1-0.1v-0.6c0,0,0-0.1,0-0.1c0,0,0-0.1,0.1-0.1l0.7-0.4c0,0,0.1,0,0.1,0.1v0.6
	C84.8,182.4,84.8,182.5,84.7,182.6C84.7,182.5,84.7,182.5,84.7,182.6z"/>
<path class="st8" d="M84.4,162.3c-0.7,0.7-1.2,1.7-1.3,2.7c-0.1,0.5,0,1,0.2,1.5l-0.2,1.2c0,0.1,0,0.1,0.1,0.1l0.7-0.8
	c0.2,0,0.4,0,0.5,0c0.2-0.1,0.3-0.1,0.5-0.3c0.7-0.7,1.2-1.7,1.3-2.7C86.4,162.3,85.5,161.5,84.4,162.3z M84.7,166.3
	c-0.6,0.4-1.2-0.1-1.2-1.1c0-0.5,0.1-0.9,0.3-1.4c0.2-0.4,0.5-0.8,0.9-1.1c0.6-0.4,1.2,0.1,1.2,1.1c0,0.5-0.1,0.9-0.3,1.4
	C85.3,165.7,85,166,84.7,166.3L84.7,166.3z"/>
<path class="st8" d="M84.4,185.8c-0.7,0.7-1.2,1.7-1.3,2.7c-0.1,0.5,0,1,0.2,1.5l-0.2,1.2c0,0.1,0,0.2,0.1,0.1l0.7-0.8
	c0.2,0,0.4,0,0.5,0c0.2-0.1,0.3-0.1,0.5-0.3c0.7-0.7,1.2-1.7,1.3-2.7C86.4,185.8,85.5,184.9,84.4,185.8z M84.7,189.8
	c-0.6,0.4-1.2-0.1-1.2-1.1c0-0.5,0.1-0.9,0.3-1.4c0.2-0.4,0.5-0.8,0.9-1.1c0.6-0.4,1.2,0.1,1.2,1.1c0,0.5-0.1,0.9-0.3,1.4
	C85.3,189.1,85,189.5,84.7,189.8z"/>
<path class="st8" d="M85.4,194.4c0,0.3,0,0.5-0.2,0.7c-0.1,0.2-0.3,0.4-0.5,0.6c-0.3,0.2-0.6-0.1-0.6-0.6c0-0.2,0.1-0.5,0.2-0.7
	c0.1-0.2,0.3-0.4,0.5-0.6C85.1,193.6,85.4,193.8,85.4,194.4z"/>
<path class="st8" d="M86.5,194.5c0,0.2,0,0.3-0.1,0.5c-0.1,0.2-0.2,0.3-0.3,0.4c-0.2,0.1-0.4,0-0.4-0.4c0-0.2,0-0.3,0.1-0.5
	c0.1-0.2,0.2-0.3,0.3-0.4C86.3,194,86.5,194.2,86.5,194.5z"/>
<path class="st8" d="M85.5,198.1l-1.5,0.8v-1.9c0-0.2,0.1-0.4,0.1-0.6c0.1-0.2,0.2-0.3,0.4-0.4l0.4-0.2c0.3-0.2,0.5,0,0.5,0.4
	L85.5,198.1z"/>
<path class="st8" d="M86.1,195.6l-0.4,0.2v2.1l0.8-0.4v-1.7C86.5,195.6,86.3,195.5,86.1,195.6z"/>
<path class="st8" d="M83.1,196.5c0,0.3,0.2,0.5,0.4,0.4c0.1-0.1,0.2-0.2,0.3-0.4c0.1-0.1,0.1-0.3,0.1-0.5c0-0.4-0.2-0.5-0.4-0.4
	c-0.1,0.1-0.2,0.2-0.3,0.4C83.2,196.2,83.1,196.3,83.1,196.5z"/>
<path class="st8" d="M83.5,197.2l0.4-0.2v2.1l-0.8,0.4v-1.7c0-0.1,0-0.3,0.1-0.4C83.3,197.3,83.4,197.2,83.5,197.2z"/>
<path class="st18" d="M90.2,160.7l17.2-9.9c0.5-0.3,0.8-0.1,0.8,0.4c0,0.3-0.1,0.6-0.3,0.8c-0.1,0.2-0.3,0.4-0.6,0.6l-17.2,9.9
	c-0.5,0.3-0.8,0.1-0.8-0.4c0-0.3,0.1-0.6,0.3-0.8C89.8,161,90,160.8,90.2,160.7z"/>
<path class="st18" d="M90.2,168.7l17.1-9.9c0.5-0.3,0.8-0.1,0.8,0.4c0,0.3-0.1,0.6-0.3,0.8c-0.1,0.2-0.3,0.4-0.6,0.6l-17.1,9.9
	c-0.5,0.3-0.8,0.1-0.8-0.4c0-0.3,0.1-0.6,0.3-0.8C89.8,169.1,90,168.9,90.2,168.7z"/>
<path class="st18" d="M90.2,176.8l17.2-9.9c0.5-0.3,0.8-0.1,0.8,0.4c0,0.3-0.1,0.6-0.2,0.8c-0.1,0.2-0.3,0.4-0.6,0.6l-17.2,9.9
	c-0.5,0.3-0.8,0.1-0.8-0.4c0-0.3,0.1-0.6,0.3-0.8C89.8,177.2,90,177,90.2,176.8z"/>
<path class="st18" d="M90.2,184.9l17.1-9.9c0.5-0.3,0.8-0.1,0.8,0.4c0,0.3-0.1,0.6-0.3,0.8c-0.1,0.2-0.3,0.4-0.6,0.6l-17.1,9.9
	c-0.5,0.3-0.8,0.1-0.8-0.4c0-0.3,0.1-0.6,0.2-0.8C89.8,185.2,90,185,90.2,184.9z"/>
<path class="st18" d="M90.2,193l17.1-9.9c0.5-0.3,0.8-0.1,0.8,0.4c0,0.3-0.1,0.6-0.3,0.8c-0.1,0.2-0.3,0.4-0.6,0.6l-17.1,9.9
	c-0.5,0.3-0.8,0.1-0.8-0.4c0-0.3,0.1-0.5,0.3-0.8C89.8,193.3,90,193.1,90.2,193z"/>
<path class="st8" d="M93.4,199.6l17.1-9.9c0.5-0.3,0.8-0.1,0.8,0.4c0,0.3-0.1,0.6-0.2,0.8c-0.1,0.2-0.3,0.4-0.6,0.6l-17.1,9.9
	c-0.5,0.3-0.8,0.1-0.8-0.4c0-0.3,0.1-0.6,0.2-0.8C92.9,199.9,93.1,199.7,93.4,199.6z"/>
<path class="st18" d="M93.4,205l17.1-9.9c0.5-0.3,0.8-0.1,0.8,0.4c0,0.3-0.1,0.6-0.3,0.8c-0.1,0.2-0.3,0.4-0.6,0.6l-17.1,9.9
	c-0.5,0.3-0.8,0.1-0.8-0.4c0-0.3,0.1-0.6,0.2-0.8C92.9,205.4,93.1,205.1,93.4,205z"/>
<path class="st18" d="M93.4,210.5l17.1-9.9c0.5-0.3,0.8-0.1,0.8,0.4c0,0.3-0.1,0.6-0.3,0.8c-0.1,0.2-0.3,0.4-0.6,0.6l-17.1,9.9
	c-0.5,0.3-0.8,0.1-0.8-0.4c0-0.3,0.1-0.6,0.3-0.8C92.9,210.8,93.1,210.6,93.4,210.5z"/>
<path class="st18" d="M96.7,213.9l17.1-9.9c0.5-0.3,0.8-0.1,0.8,0.4c0,0.3-0.1,0.6-0.2,0.8c-0.1,0.2-0.3,0.4-0.6,0.6l-17.1,9.9
	c-0.5,0.3-0.8,0.1-0.8-0.4c0-0.3,0.1-0.6,0.3-0.8C96.3,214.3,96.5,214.1,96.7,213.9z"/>
<path class="st8" d="M92.7,218.6l1.4-2.5c0.1-0.1,0.1-0.2,0-0.2l-1.4-0.8c-0.1,0-0.2,0.1-0.2,0.2v3.3
	C92.5,218.7,92.6,218.7,92.7,218.6z"/>
<path class="st18" d="M96.7,219.3l17.1-9.9c0.5-0.3,0.8-0.1,0.8,0.4c0,0.3-0.1,0.6-0.3,0.8c-0.1,0.2-0.3,0.4-0.6,0.6l-17.1,9.9
	c-0.5,0.3-0.8,0.1-0.8-0.4c0-0.3,0.1-0.6,0.3-0.8C96.3,219.7,96.5,219.5,96.7,219.3z"/>
<path class="st8" d="M92.7,224l1.4-2.5c0.1-0.1,0.1-0.2,0-0.3l-1.4-0.8c-0.1,0-0.2,0.1-0.2,0.2v3.3C92.5,224.1,92.6,224.2,92.7,224z
	"/>
<path class="st18" d="M96.7,224.8l17.1-9.9c0.5-0.3,0.8-0.1,0.8,0.4c0,0.3-0.1,0.6-0.3,0.8c-0.1,0.2-0.3,0.4-0.6,0.6l-17.1,9.9
	c-0.5,0.3-0.8,0.1-0.8-0.4c0-0.3,0.1-0.6,0.3-0.8C96.3,225.1,96.5,224.9,96.7,224.8z"/>
<path class="st8" d="M92.7,229.5l1.4-2.5c0.1-0.1,0.1-0.2,0-0.2l-1.4-0.8c-0.1,0-0.2,0.1-0.2,0.2v3.3
	C92.5,229.6,92.6,229.6,92.7,229.5z"/>
<path class="st18" d="M96.7,230.2l17.1-9.9c0.5-0.3,0.8-0.1,0.8,0.4c0,0.3-0.1,0.6-0.2,0.8c-0.1,0.2-0.3,0.4-0.6,0.6L96.7,232
	c-0.5,0.3-0.8,0.1-0.8-0.4c0-0.3,0.1-0.6,0.3-0.8C96.3,230.6,96.5,230.4,96.7,230.2z"/>
<path class="st8" d="M92.7,234.9l1.4-2.5c0.1-0.1,0.1-0.2,0-0.2l-1.4-0.8c-0.1,0-0.2,0.1-0.2,0.2v3.3C92.5,235,92.6,235,92.7,234.9z
	"/>
<path class="st18" d="M96.7,235.7l17.1-9.9c0.5-0.3,0.8-0.1,0.8,0.4c0,0.3-0.1,0.6-0.3,0.8c-0.1,0.2-0.3,0.4-0.6,0.6l-17.1,9.9
	c-0.5,0.3-0.8,0.1-0.8-0.4c0-0.3,0.1-0.6,0.3-0.8C96.3,236,96.5,235.8,96.7,235.7z"/>
<path class="st8" d="M92.7,240.3l1.4-2.5c0.1-0.1,0.1-0.2,0-0.3l-1.4-0.8c-0.1,0-0.2,0.1-0.2,0.2v3.3
	C92.5,240.4,92.6,240.5,92.7,240.3z"/>
<path class="st18" d="M96.7,241.1l17.1-9.9c0.5-0.3,0.8-0.1,0.8,0.4c0,0.3-0.1,0.6-0.3,0.8c-0.1,0.2-0.3,0.4-0.6,0.6l-17.1,9.9
	c-0.5,0.3-0.8,0.1-0.8-0.4c0-0.3,0.1-0.6,0.3-0.8C96.3,241.4,96.5,241.2,96.7,241.1z"/>
<path class="st8" d="M92.7,245.8l1.4-2.5c0.1-0.1,0.1-0.2,0-0.2l-1.4-0.8c-0.1,0-0.2,0.1-0.2,0.2v3.3
	C92.5,245.9,92.6,245.9,92.7,245.8z"/>
<path class="st18" d="M96.7,246.5l17.1-9.9c0.5-0.3,0.8-0.1,0.8,0.4c0,0.3-0.1,0.6-0.2,0.8c-0.1,0.2-0.3,0.4-0.6,0.6l-17.1,9.9
	c-0.5,0.3-0.8,0.1-0.8-0.4c0-0.3,0.1-0.6,0.3-0.8C96.3,246.8,96.5,246.6,96.7,246.5z"/>
<path class="st8" d="M92.7,251.2l1.4-2.5c0.1-0.1,0.1-0.2,0-0.2l-1.4-0.8c-0.1,0-0.2,0.1-0.2,0.2v3.3
	C92.5,251.3,92.6,251.3,92.7,251.2z"/>
<path class="st18" d="M96.7,251.9l17.1-9.9c0.5-0.3,0.8-0.1,0.8,0.4c0,0.3-0.1,0.6-0.3,0.8c-0.1,0.2-0.3,0.4-0.6,0.6l-17.1,9.9
	c-0.5,0.3-0.8,0.1-0.8-0.4c0-0.3,0.1-0.6,0.3-0.8C96.3,252.3,96.5,252.1,96.7,251.9z"/>
<path class="st8" d="M92.7,256.6l1.4-2.4c0.1-0.1,0.1-0.2,0-0.3l-1.4-0.8c-0.1,0-0.2,0.1-0.2,0.2v3.3
	C92.5,256.7,92.6,256.7,92.7,256.6z"/>
<path class="st0" d="M131,138l56.4-32.5c0.2-0.2,0.4-0.4,0.6-0.6c0.1-0.2,0.2-0.5,0.2-0.8V89.7c0-0.5-0.4-0.8-0.8-0.5L131,121.7
	c-0.2,0.2-0.4,0.4-0.6,0.6c-0.1,0.3-0.2,0.5-0.2,0.8v14.4C130.2,138.1,130.5,138.3,131,138z"/>
<path class="st8" d="M135.9,127.9l0.4-1.5l-0.5,0.3c0,0,0,0,0,0v-0.3c0,0,0,0,0-0.1c0,0,0,0,0,0l0.8-0.5c0,0,0,0,0,0v0.2
	c0,0,0,0.1,0,0.1l-0.4,1.5c0,0,0,0,0,0.1c0,0,0,0,0,0L135.9,127.9C136,127.9,136,127.9,135.9,127.9
	C135.9,127.9,135.9,127.9,135.9,127.9C135.9,127.9,135.9,127.9,135.9,127.9C135.9,127.9,135.9,127.9,135.9,127.9z"/>
<path class="st8" d="M137.3,125.3c0.1,0,0.1-0.1,0.2-0.1c0.1,0,0.1,0,0.2,0.1c0,0.1,0.1,0.1,0.1,0.2c0,0.1,0,0.2,0,0.3v0.5
	c0,0.1,0,0.2,0,0.3c0,0.1,0,0.2-0.1,0.3c0,0.1-0.1,0.2-0.2,0.2c-0.1,0.1-0.1,0.1-0.2,0.2c-0.1,0-0.1,0.1-0.2,0.1
	c-0.1,0-0.1,0-0.1-0.1c0,0-0.1-0.1-0.1-0.2c0-0.1,0-0.2,0-0.3v-0.5c0-0.1,0-0.2,0-0.3c0-0.1,0-0.2,0.1-0.3c0-0.1,0.1-0.2,0.1-0.2
	C137.2,125.4,137.2,125.3,137.3,125.3z M137.5,126.3v-0.4c0,0,0-0.1,0-0.1c0,0,0-0.1,0-0.1c0,0,0,0,0,0c0,0,0,0,0,0h-0.1
	c0,0-0.1,0-0.1,0.1c0,0,0,0.1-0.1,0.1c0,0,0,0.1,0,0.1c0,0,0,0.1,0,0.1v0.4c0,0,0,0.1,0,0.1c0,0,0,0.1,0,0.1c0,0,0,0,0.1,0
	c0,0,0.1,0,0.1,0c0,0,0.1,0,0.1-0.1c0,0,0-0.1,0.1-0.1c0,0,0-0.1,0-0.1C137.5,126.4,137.5,126.4,137.5,126.3L137.5,126.3z"/>
<path class="st8" d="M138.5,125.2V125c0,0,0-0.1,0-0.1l0-0.1c0,0-0.1,0-0.1,0c0,0-0.1,0-0.1,0c0,0-0.1,0.1-0.1,0.1
	c0,0-0.1,0.1-0.1,0.1c0,0,0,0.1,0,0.1c0,0.1,0,0.1,0,0.2v0.2c0,0,0,0.1,0,0.1c0,0,0,0.1,0,0.1c0,0,0,0,0,0s0,0,0,0c0,0,0.1,0,0.1,0
	c0,0,0.1-0.1,0.1-0.1c0,0,0.1-0.1,0.1-0.1c0,0,0-0.1,0-0.1C138.5,125.3,138.5,125.2,138.5,125.2z"/>
<path class="st8" d="M138.9,124.4L138.9,124.4l-0.8,2.3l0.1-0.1c0,0,0,0,0,0v0l0.8-2.2L138.9,124.4
	C138.9,124.4,138.9,124.4,138.9,124.4z"/>
<path class="st8" d="M135.9,123.4l-0.6-0.9c-0.7,1.1-1.1,2.3-1.3,3.6l0.9-0.1C135.1,125.2,135.4,124.3,135.9,123.4z"/>
<path class="st8" d="M137.5,121.7v-1.5c-0.9,0.6-1.6,1.4-2.2,2.3l0.6,0.9C136.3,122.7,136.8,122.1,137.5,121.7z"/>
<path class="st8" d="M134.8,127.5c0-0.5,0-0.9,0.1-1.4l-0.9,0.1c-0.1,0.6-0.2,1.2-0.2,1.9c0,0.6,0.1,1.1,0.2,1.6l0.9-1
	C134.8,128.3,134.8,127.9,134.8,127.5z"/>
<path class="st2" d="M141,122.1c-0.1-0.4-0.2-0.8-0.5-1.2c-0.2-0.4-0.5-0.7-0.9-0.9c-0.3-0.2-0.7-0.2-1.1-0.2
	c-0.4,0-0.7,0.2-1.1,0.4v1.5c0.2-0.2,0.5-0.3,0.8-0.3c0.3,0,0.6,0,0.8,0.2c0.3,0.2,0.5,0.4,0.7,0.7c0.2,0.3,0.3,0.6,0.3,0.9
	c0.1,0.4,0.1,0.8,0.1,1.2c0,0.5,0,0.9-0.1,1.4c-0.2,0.9-0.5,1.8-1,2.7c-0.4,0.7-0.9,1.3-1.6,1.7c-0.2,0.2-0.5,0.3-0.8,0.3
	c-0.3,0-0.6,0-0.8-0.2c-0.3-0.2-0.5-0.4-0.7-0.7c-0.2-0.3-0.3-0.6-0.3-0.9l-0.9,1c0.1,0.4,0.2,0.8,0.4,1.2c0.2,0.4,0.5,0.7,0.9,0.9
	c0.3,0.2,0.7,0.2,1.1,0.2c0.4,0,0.7-0.2,1.1-0.4c0.9-0.6,1.6-1.4,2.2-2.3c0.6-1.1,1.1-2.3,1.3-3.6c0.1-0.6,0.2-1.2,0.2-1.9
	C141.2,123.2,141.1,122.7,141,122.1z"/>
<path class="st8" d="M146.7,118.1l17.1-9.9c0.5-0.3,0.8-0.1,0.8,0.4c0,0.3-0.1,0.6-0.3,0.8c-0.1,0.2-0.3,0.4-0.6,0.6l-17.1,9.9
	c-0.5,0.3-0.8,0.1-0.8-0.4c0-0.3,0.1-0.5,0.3-0.8C146.2,118.4,146.4,118.2,146.7,118.1z"/>
<path class="st18" d="M146.7,121.7l29.7-17.1c0.5-0.3,0.8-0.1,0.8,0.4c0,0.3-0.1,0.6-0.3,0.8c-0.1,0.2-0.3,0.4-0.6,0.6l-29.7,17.1
	c-0.5,0.3-0.8,0.1-0.8-0.4c0-0.3,0.1-0.6,0.3-0.8C146.2,122.1,146.4,121.9,146.7,121.7z"/>
<path class="st0" d="M192.1,102.7l56.4-32.5c0.2-0.2,0.4-0.4,0.6-0.6c0.1-0.3,0.2-0.5,0.2-0.8V54.3c0-0.5-0.4-0.8-0.8-0.5
	l-56.4,32.5c-0.2,0.2-0.4,0.4-0.6,0.6c-0.1,0.3-0.2,0.5-0.2,0.8v14.4C191.3,102.7,191.7,103,192.1,102.7z"/>
<path class="st8" d="M197.3,91.2c0-0.1,0-0.2,0-0.3c0-0.1,0.1-0.2,0.1-0.3c0-0.1,0.1-0.2,0.2-0.2c0.1-0.1,0.1-0.1,0.2-0.2
	c0.1,0,0.1,0,0.2-0.1c0.1,0,0.1,0,0.2,0c0.1,0,0.1,0.1,0.1,0.1c0,0.1,0,0.2,0,0.3c0,0,0,0.1,0,0.1c0,0,0,0.1,0,0.1c0,0,0,0.1,0,0.1
	l0,0.1l-0.3,0.9c0,0,0,0,0,0c0,0,0,0,0,0l-0.3,0.2c0,0,0,0,0,0c0,0,0,0,0,0l0.2-0.6c-0.1,0-0.1,0-0.2,0c0,0-0.1,0-0.1-0.1
	c0,0-0.1-0.1-0.1-0.1C197.4,91.4,197.3,91.3,197.3,91.2z M198,90.8C198,90.8,198,90.8,198,90.8c0-0.1,0-0.1,0-0.1c0,0,0,0,0,0h-0.1
	c0,0,0,0-0.1,0l-0.1,0.1l-0.1,0.1c0,0,0,0.1,0,0.1c0,0,0,0.1,0,0.1c0,0,0,0.1,0,0.1c0,0,0,0,0,0h0.1c0,0,0,0,0.1,0
	c0,0,0.1,0,0.1-0.1c0,0,0,0,0.1-0.1c0,0,0-0.1,0-0.1C198,90.9,198,90.9,198,90.8z"/>
<path class="st8" d="M199,89.6c0.1,0,0.1-0.1,0.2-0.1c0,0,0.1,0,0.1,0c0,0,0.1,0,0.1,0c0,0.1,0.1,0.1,0.1,0.2c0,0.1,0,0.2,0,0.3
	c0,0.1,0,0.2,0,0.2c0,0.1,0,0.2,0,0.2c0,0.1,0,0.2,0,0.3c0,0.1-0.1,0.2-0.1,0.3c0,0.1-0.1,0.2-0.2,0.2c-0.1,0.1-0.1,0.1-0.2,0.2
	c-0.1,0-0.1,0.1-0.2,0.1c-0.1,0-0.1,0-0.2-0.1c0-0.1-0.1-0.1-0.1-0.2c0-0.1,0-0.2,0-0.2c0-0.1,0-0.2,0-0.2s0-0.2,0-0.2
	c0-0.1,0-0.2,0-0.3c0-0.1,0.1-0.2,0.1-0.3c0-0.1,0.1-0.2,0.2-0.2C198.8,89.7,198.9,89.7,199,89.6z M199.2,90.7c0-0.1,0-0.3,0-0.4
	c0,0,0-0.1,0-0.1c0,0,0-0.1,0-0.1c0,0,0,0-0.1,0H199c0,0-0.1,0-0.1,0.1c0,0,0,0.1-0.1,0.1c0,0,0,0.1,0,0.1c0,0,0,0.1,0,0.1
	c0,0.1,0,0.3,0,0.4c0,0,0,0.1,0,0.1c0,0,0,0.1,0,0.1c0,0,0,0,0,0c0,0,0,0,0,0c0,0,0,0,0.1,0l0.1-0.1c0,0,0-0.1,0.1-0.1
	c0,0,0-0.1,0-0.1C199.2,90.8,199.2,90.7,199.2,90.7z"/>
<path class="st8" d="M200.2,89.3c0,0.1,0,0.1,0,0.2c0,0.1,0,0.1,0,0.2c0,0,0,0.1-0.1,0.1c0,0,0,0.1-0.1,0.1c0,0-0.1,0.1-0.1,0.1
	c0,0-0.1,0-0.1,0c0,0-0.1,0-0.1,0c0,0,0-0.1-0.1-0.1c0,0,0-0.1,0-0.1c0,0,0-0.1,0-0.1c0,0,0-0.1,0-0.1c0-0.1,0-0.1,0-0.2
	c0-0.1,0-0.1,0.1-0.1c0,0,0-0.1,0.1-0.1c0,0,0.1-0.1,0.1-0.1c0,0,0.1,0,0.1,0c0,0,0,0,0,0s0,0,0,0C200.1,89.2,200.1,89.2,200.2,89.3
	C200.2,89.3,200.2,89.3,200.2,89.3z M200.6,88.8L200.6,88.8L200.6,88.8l0.2-0.1l-0.8,2.2c0,0,0,0,0,0v0l-0.1,0.1L200.6,88.8z
	 M199.8,89.7C199.8,89.8,199.8,89.8,199.8,89.7C199.8,89.8,199.8,89.8,199.8,89.7C199.9,89.8,199.9,89.8,199.8,89.7
	c0.1,0.1,0.1,0,0.1,0v-0.1v-0.2c0,0,0-0.1,0-0.1c0,0,0,0-0.1,0c0,0,0,0,0,0.1c0,0,0,0.1,0,0.1V89.7z M201,89.8c0,0.1,0,0.1,0,0.2
	c0,0.1,0,0.1,0,0.2c0,0,0,0.1-0.1,0.1c0,0,0,0.1-0.1,0.1c0,0-0.1,0.1-0.1,0.1c0,0-0.1,0-0.1,0c0,0,0,0,0,0c0,0,0,0,0,0
	c0,0,0-0.1-0.1-0.1c0,0,0-0.1,0-0.1c0-0.1,0-0.1,0-0.2c0-0.1,0-0.1,0-0.2c0-0.1,0-0.1,0.1-0.1c0,0,0-0.1,0.1-0.1
	c0,0,0.1-0.1,0.1-0.1c0,0,0.1,0,0.1,0c0,0,0,0,0,0c0,0,0,0,0,0c0,0,0,0.1,0.1,0.1C201,89.7,201,89.7,201,89.8L201,89.8z M200.6,90.2
	C200.6,90.2,200.6,90.3,200.6,90.2C200.6,90.3,200.6,90.3,200.6,90.2C200.7,90.3,200.7,90.3,200.6,90.2c0.1,0.1,0.1,0,0.1,0
	c0,0,0-0.1,0-0.1c0-0.1,0-0.1,0-0.2c0,0,0-0.1,0-0.1c0,0,0,0-0.1,0c0,0,0,0,0,0.1c0,0,0,0.1,0,0.1V90.2z"/>
<path class="st8" d="M199.1,86.1v-1.5c-0.9,0.6-1.7,1.4-2.2,2.3l0.6,0.9C197.9,87.1,198.5,86.5,199.1,86.1z"/>
<path class="st2" d="M202.6,86.5c-0.1-0.4-0.2-0.8-0.4-1.2c-0.2-0.4-0.5-0.7-0.9-0.9c-0.3-0.2-0.7-0.2-1.1-0.2
	c-0.4,0-0.7,0.2-1.1,0.4v1.5c0.2-0.2,0.5-0.3,0.8-0.3c0.3,0,0.6,0,0.8,0.2c0.3,0.2,0.5,0.4,0.7,0.7s0.3,0.6,0.3,0.9
	c0.1,0.4,0.1,0.8,0.1,1.2c0,0.5,0,0.9-0.1,1.4c-0.2,0.9-0.5,1.8-1,2.7c-0.4,0.7-0.9,1.3-1.6,1.7c-0.2,0.2-0.5,0.3-0.8,0.3
	c-0.3,0-0.6,0-0.8-0.2c-0.3-0.2-0.5-0.4-0.7-0.7c-0.2-0.3-0.3-0.6-0.3-0.9c-0.1-0.4-0.1-0.8-0.1-1.2c0-0.5,0-0.9,0.1-1.4
	c0.2-0.9,0.5-1.8,1-2.7L197,87c-0.6,1.1-1.1,2.3-1.3,3.6c-0.1,0.6-0.2,1.2-0.2,1.9c0,0.6,0.1,1.1,0.2,1.6c0.1,0.4,0.2,0.8,0.4,1.2
	c0.2,0.4,0.5,0.7,0.9,0.9c0.3,0.2,0.7,0.2,1.1,0.2c0.4,0,0.7-0.2,1.1-0.4c0.9-0.6,1.6-1.4,2.2-2.3c0.6-1.1,1.1-2.3,1.3-3.6
	c0.1-0.6,0.2-1.2,0.2-1.9C202.8,87.6,202.8,87.1,202.6,86.5z"/>
<path class="st8" d="M208.3,82.5l17.1-9.9c0.5-0.3,0.8-0.1,0.8,0.4c0,0.3-0.1,0.6-0.3,0.8c-0.1,0.2-0.3,0.4-0.6,0.6l-17.1,9.9
	c-0.5,0.3-0.8,0.1-0.8-0.4c0-0.3,0.1-0.6,0.3-0.8C207.9,82.8,208.1,82.6,208.3,82.5z"/>
<path class="st18" d="M208.3,86.1L238,69c0.5-0.3,0.8-0.1,0.8,0.4c0,0.3-0.1,0.6-0.3,0.8c-0.1,0.2-0.3,0.4-0.6,0.6l-29.7,17.1
	c-0.5,0.3-0.8,0.1-0.8-0.4c0-0.3,0.1-0.6,0.3-0.8C207.9,86.5,208.1,86.3,208.3,86.1z"/>
<path class="st8" d="M136.7,141.9l12-6.9c0.5-0.3,0.8-0.1,0.8,0.4c0,0.3-0.1,0.6-0.2,0.8c-0.1,0.2-0.3,0.4-0.6,0.6l-12,6.9
	c-0.5,0.3-0.8,0.1-0.8-0.4c0-0.3,0.1-0.6,0.3-0.8C136.3,142.3,136.5,142.1,136.7,141.9z"/>
<path class="st0" d="M248.6,81.9v91.9c0,0.2-0.1,0.3-0.1,0.4c-0.1,0.1-0.2,0.2-0.3,0.3l-117.2,67.6v-91.9c0-0.2,0.1-0.3,0.1-0.4
	c0.1-0.1,0.2-0.2,0.3-0.3l1.5-0.8c0.4-0.2,0.7-0.5,0.9-0.9c0.2-0.4,0.3-0.8,0.4-1.2v-5.3c0-0.2,0.1-0.3,0.1-0.4
	c0.1-0.1,0.2-0.2,0.3-0.3l16.8-9.7v4.9c0,0.2,0,0.3,0.1,0.5c0.1,0.2,0.1,0.3,0.3,0.4c0.1,0.1,0.3,0.2,0.4,0.3
	c0.2,0.1,0.3,0.1,0.5,0.1c0.3,0,0.5-0.1,0.8-0.2L248.6,81.9L248.6,81.9z M248.9,80.9c-0.1,0-0.3,0-0.4,0.1l-95.5,55.2
	c-0.1,0.1-0.2,0.1-0.4,0.1c-0.3,0-0.5-0.2-0.5-0.6v-5.3c0-0.4-0.2-0.6-0.5-0.6c-0.1,0-0.3,0-0.4,0.1l-17.1,9.9
	c-0.2,0.2-0.4,0.4-0.6,0.6s-0.2,0.5-0.2,0.8v5.3c0,0.3-0.1,0.6-0.2,0.8c-0.1,0.3-0.3,0.5-0.6,0.6l-1.5,0.8c-0.2,0.2-0.4,0.4-0.6,0.6
	c-0.1,0.3-0.2,0.5-0.2,0.8v92.2c0,0.4,0.2,0.6,0.5,0.6c0.1,0,0.3,0,0.4-0.1l117.5-67.8c0.2-0.2,0.4-0.4,0.6-0.6
	c0.1-0.3,0.2-0.5,0.2-0.8V81.5C249.3,81.1,249.1,80.9,248.9,80.9L248.9,80.9z"/>
<path class="st18" d="M137.7,154.3c-0.1,0-0.3,0-0.4-0.1c-0.1-0.1-0.3-0.2-0.3-0.4c-0.1-0.2-0.1-0.3-0.1-0.5v-3.5
	c0-0.4,0.1-0.7,0.3-1c0.2-0.3,0.4-0.6,0.7-0.8l9.3-5.4c0.1-0.1,0.3-0.2,0.5-0.2c0.2,0,0.3,0,0.5,0.1c0.1,0.1,0.3,0.2,0.3,0.4
	s0.1,0.3,0.1,0.5v3.5c0,0.4-0.1,0.7-0.3,1c-0.2,0.3-0.4,0.6-0.7,0.8l-9.3,5.4C138.1,154.3,137.9,154.3,137.7,154.3z M138.3,148.7
	c-0.2,0.1-0.3,0.3-0.5,0.5c-0.1,0.2-0.2,0.4-0.2,0.6v3.5c0,0.1,0,0.1,0.1,0.2c0.1,0,0.1,0,0.2-0.1l9.3-5.4c0.2-0.1,0.3-0.3,0.4-0.5
	c0.1-0.2,0.2-0.4,0.2-0.6v-3.5c0-0.1,0-0.1-0.1-0.2c-0.1,0-0.1,0-0.2,0.1L138.3,148.7z"/>
<path class="st18" d="M138.9,150.2l6.1-3.5c0.3-0.2,0.6-0.1,0.6,0.3c0,0.2-0.1,0.4-0.2,0.5c-0.1,0.2-0.2,0.3-0.4,0.4l-6.1,3.5
	c-0.3,0.2-0.6,0-0.6-0.3c0-0.2,0.1-0.4,0.2-0.5C138.6,150.4,138.7,150.3,138.9,150.2z"/>
<path class="st8" d="M146.3,146.1l0.5,0.7c0,0,0.1,0,0.1,0l0.5-1.3c0-0.1,0-0.1,0-0.1l-1,0.6C146.4,145.9,146.3,145.9,146.3,146.1
	C146.3,146,146.3,146,146.3,146.1z"/>
<path class="st2" d="M136.4,188.2c0.4-0.3,0.8,0,0.8,0.5c0,0.3-0.1,0.5-0.2,0.8c-0.1,0.2-0.3,0.5-0.6,0.6c-0.4,0.3-0.8,0-0.8-0.5
	c0-0.3,0.1-0.5,0.2-0.8S136.2,188.4,136.4,188.2z"/>
<path class="st2" d="M142.7,181c0.4-0.3,0.8,0,0.8,0.5c0,0.3-0.1,0.6-0.2,0.8c-0.1,0.2-0.3,0.4-0.6,0.6c-0.4,0.3-0.8,0-0.8-0.5
	c0-0.3,0.1-0.5,0.2-0.8C142.3,181.4,142.5,181.2,142.7,181z"/>
<path class="st2" d="M149,177.4c0.4-0.3,0.8,0,0.8,0.5c0,0.3-0.1,0.5-0.2,0.8c-0.1,0.2-0.3,0.5-0.6,0.6c-0.4,0.3-0.8,0-0.8-0.5
	c0-0.3,0.1-0.6,0.2-0.8C148.5,177.7,148.7,177.5,149,177.4z"/>
<path class="st2" d="M155.2,175.3c0.4-0.3,0.8,0,0.8,0.5c0,0.3-0.1,0.5-0.2,0.8c-0.1,0.2-0.3,0.4-0.6,0.6c-0.4,0.3-0.8,0-0.8-0.5
	c0-0.3,0.1-0.5,0.2-0.8C154.8,175.7,155,175.5,155.2,175.3z"/>
<path class="st2" d="M161.5,168.8c0.4-0.3,0.8,0,0.8,0.5c0,0.3-0.1,0.5-0.2,0.8s-0.3,0.4-0.6,0.6c-0.4,0.3-0.8,0.1-0.8-0.5
	c0-0.3,0.1-0.5,0.2-0.8C161.1,169.2,161.3,169,161.5,168.8z"/>
<path class="st2" d="M167.8,166.5c0.4-0.3,0.8,0,0.8,0.5c0,0.3-0.1,0.5-0.2,0.8c-0.1,0.2-0.3,0.5-0.6,0.6c-0.4,0.3-0.8,0-0.8-0.5
	c0-0.3,0.1-0.5,0.2-0.8C167.4,166.9,167.6,166.7,167.8,166.5z"/>
<path class="st2" d="M174.1,159.2c0.4-0.3,0.8-0.1,0.8,0.5c0,0.3-0.1,0.6-0.2,0.8c-0.1,0.2-0.3,0.4-0.6,0.6c-0.4,0.3-0.8,0-0.8-0.5
	c0-0.3,0.1-0.5,0.2-0.8C173.6,159.6,173.8,159.4,174.1,159.2z"/>
<path class="st2" d="M180.3,157.5c0.4-0.3,0.8,0,0.8,0.5c0,0.3-0.1,0.5-0.2,0.8c-0.1,0.2-0.3,0.4-0.5,0.6c-0.4,0.3-0.8,0.1-0.8-0.5
	c0-0.3,0.1-0.5,0.2-0.8C179.9,157.8,180.1,157.6,180.3,157.5z"/>
<path class="st2" d="M186.6,137.5c0.4-0.3,0.8,0,0.8,0.5c0,0.3-0.1,0.5-0.2,0.8c-0.1,0.2-0.3,0.5-0.6,0.6c-0.4,0.3-0.8,0-0.8-0.5
	c0-0.3,0.1-0.5,0.2-0.8C186.2,137.9,186.4,137.7,186.6,137.5z"/>
<path class="st2" d="M192.9,148.4c0.4-0.3,0.8-0.1,0.8,0.5c0,0.3-0.1,0.5-0.2,0.8c-0.1,0.2-0.3,0.5-0.5,0.6c-0.4,0.3-0.8,0-0.8-0.5
	c0-0.3,0.1-0.6,0.2-0.8C192.5,148.8,192.7,148.6,192.9,148.4z"/>
<path class="st2" d="M199.1,148.4c0.4-0.3,0.8-0.1,0.8,0.5c0,0.3-0.1,0.5-0.2,0.8c-0.1,0.2-0.3,0.5-0.6,0.6c-0.4,0.3-0.8,0-0.8-0.5
	c0-0.3,0.1-0.5,0.2-0.8C198.7,148.8,198.9,148.6,199.1,148.4z"/>
<path class="st2" d="M205.4,148.4c0.4-0.3,0.8-0.1,0.8,0.5c0,0.3-0.1,0.5-0.2,0.8c-0.1,0.2-0.3,0.5-0.5,0.6c-0.4,0.3-0.8,0-0.8-0.5
	c0-0.3,0.1-0.5,0.2-0.8C205,148.8,205.2,148.6,205.4,148.4z"/>
<path class="st2" d="M211.7,137.6c0.4-0.3,0.8-0.1,0.8,0.5c0,0.3-0.1,0.5-0.2,0.8c-0.1,0.2-0.3,0.5-0.5,0.6c-0.4,0.3-0.8,0-0.8-0.5
	c0-0.3,0.1-0.6,0.2-0.8C211.3,137.9,211.5,137.7,211.7,137.6z"/>
<path class="st2" d="M218,135.5c0.4-0.3,0.8,0,0.8,0.5c0,0.3-0.1,0.5-0.2,0.8c-0.1,0.2-0.3,0.5-0.6,0.6c-0.4,0.3-0.8,0-0.8-0.5
	c0-0.3,0.1-0.5,0.2-0.8S217.7,135.6,218,135.5z"/>
<path class="st2" d="M224.3,126.7c0.4-0.3,0.8,0,0.8,0.5c0,0.3-0.1,0.6-0.2,0.8c-0.1,0.2-0.3,0.4-0.6,0.6c-0.4,0.3-0.8,0.1-0.8-0.5
	c0-0.3,0.1-0.5,0.2-0.8C223.8,127,224,126.8,224.3,126.7z"/>
<path class="st2" d="M231.1,128c0.3-0.5,0.3-1.1,0-1.3c-0.3-0.2-0.8,0.1-1.1,0.7c-0.3,0.5-0.3,1.1,0,1.3
	C230.3,128.8,230.8,128.5,231.1,128z"/>
<path class="st2" d="M237.4,128c0.3-0.5,0.3-1.1,0-1.3c-0.3-0.2-0.8,0.1-1.1,0.7c-0.3,0.5-0.3,1.1,0,1.3S237,128.5,237.4,128z"/>
<path class="st2" d="M243.1,123.1c0.4-0.3,0.8,0,0.8,0.5c0,0.3-0.1,0.5-0.2,0.8c-0.1,0.2-0.3,0.4-0.5,0.6c-0.4,0.3-0.8,0.1-0.8-0.5
	c0-0.3,0.1-0.6,0.2-0.8C242.6,123.4,242.8,123.2,243.1,123.1z"/>
<path class="st2" d="M136.4,189.4c0,0-0.1,0-0.1,0c0,0-0.1-0.1-0.1-0.1c0-0.1,0-0.1,0.1-0.1l6.3-7.3l0.1,0l6.2-3.6l6.3-2l6.2-6.5
	l0.1,0l6.2-2.3l6.2-7.2c0,0,0.1,0,0.1-0.1l6.2-1.8l6.2-19.8c0,0,0-0.1,0.1-0.1c0,0,0.1,0,0.1,0c0,0,0.1,0,0.1,0c0,0,0.1,0,0.1,0.1
	l6.2,10.8h12.4l6.2-10.7c0,0,0,0,0-0.1c0,0,0,0,0.1,0l6.2-2.1l6.2-8.7c0,0,0,0,0.1-0.1c0,0,0.1,0,0.1,0h12.5l6.2-3.6
	c0,0,0.1,0,0.2,0c0,0,0.1,0,0.1,0.1c0,0,0,0.1,0,0.1c0,0,0,0.1-0.1,0.1l-6.3,3.6c0,0-0.1,0-0.1,0h-12.4l-6.2,8.7
	c0,0-0.1,0.1-0.1,0.1l-6.2,2.1l-6.2,10.8c0,0,0,0.1-0.1,0.1c0,0-0.1,0-0.1,0h-12.5c0,0-0.1,0-0.1,0c0,0-0.1,0-0.1-0.1l-6.1-10.5
	l-6.1,19.5c0,0,0,0.1-0.1,0.1c0,0,0,0-0.1,0.1l-6.2,1.8l-6.2,7.2l-0.1,0.1l-6.2,2.3l-6.2,6.5c0,0,0,0-0.1,0l-6.3,2l-6.2,3.6
	l-6.3,7.2C136.5,189.3,136.5,189.4,136.4,189.4z"/>
<path class="st18" d="M136.4,193.2c-0.1,0-0.1,0-0.2-0.1s-0.1-0.1-0.1-0.1c-0.1-0.1-0.1-0.2,0-0.3c0-0.1,0.1-0.2,0.2-0.2l106.6-61.6
	c0.1,0,0.2,0,0.3,0c0.1,0,0.2,0.1,0.2,0.2c0,0.1,0.1,0.2,0,0.3c0,0.1-0.1,0.2-0.2,0.2l-106.6,61.5
	C136.6,193.2,136.5,193.2,136.4,193.2z"/>
<path class="st2" d="M136.4,184.6c0.4-0.3,0.8,0,0.8,0.5c0,0.3-0.1,0.5-0.2,0.8c-0.1,0.2-0.3,0.5-0.6,0.6c-0.4,0.3-0.8,0-0.8-0.5
	c0-0.3,0.1-0.5,0.2-0.8C136,185,136.2,184.8,136.4,184.6z"/>
<path class="st2" d="M142.7,173.8c0.4-0.3,0.8,0,0.8,0.5c0,0.3-0.1,0.6-0.2,0.8c-0.1,0.2-0.3,0.4-0.6,0.6c-0.4,0.3-0.8,0-0.8-0.5
	c0-0.3,0.1-0.5,0.2-0.8C142.3,174.1,142.5,173.9,142.7,173.8z"/>
<path class="st2" d="M149.6,173.7c0.3-0.5,0.3-1.1,0-1.3c-0.3-0.2-0.8,0.1-1.1,0.7c-0.3,0.5-0.3,1.1,0,1.3S149.2,174.2,149.6,173.7z
	"/>
<path class="st2" d="M155.2,159.2c0.4-0.3,0.8-0.1,0.8,0.5c0,0.3-0.1,0.5-0.2,0.8c-0.1,0.2-0.3,0.4-0.6,0.6c-0.4,0.3-0.8,0-0.8-0.5
	c0-0.3,0.1-0.5,0.2-0.8C154.8,159.6,155,159.4,155.2,159.2z"/>
<path class="st2" d="M161.5,162.9c0.4-0.3,0.8,0,0.8,0.5c0,0.3-0.1,0.5-0.2,0.8c-0.1,0.2-0.3,0.4-0.6,0.6c-0.4,0.3-0.8,0-0.8-0.5
	c0-0.3,0.1-0.5,0.2-0.8C161.1,163.3,161.3,163.1,161.5,162.9z"/>
<path class="st2" d="M167.8,161.1c0.4-0.3,0.8,0,0.8,0.5c0,0.3-0.1,0.5-0.2,0.8c-0.1,0.2-0.3,0.4-0.6,0.6c-0.4,0.3-0.8,0.1-0.8-0.5
	c0-0.3,0.1-0.5,0.2-0.8C167.4,161.4,167.6,161.2,167.8,161.1z"/>
<path class="st2" d="M174.1,155.7c0.4-0.3,0.8-0.1,0.8,0.5c0,0.3-0.1,0.6-0.2,0.8c-0.1,0.2-0.3,0.4-0.6,0.6c-0.4,0.3-0.8,0-0.8-0.5
	c0-0.3,0.1-0.5,0.2-0.8C173.6,156,173.8,155.8,174.1,155.7z"/>
<path class="st2" d="M180.3,148.4c0.4-0.3,0.8-0.1,0.8,0.5c0,0.3-0.1,0.5-0.2,0.8c-0.1,0.2-0.3,0.5-0.5,0.6c-0.4,0.3-0.8,0-0.8-0.5
	c0-0.3,0.1-0.5,0.2-0.8C179.9,148.8,180.1,148.6,180.3,148.4z"/>
<path class="st2" d="M186.6,146.6c0.4-0.3,0.8,0,0.8,0.5c0,0.3-0.1,0.5-0.2,0.8c-0.1,0.2-0.3,0.5-0.6,0.6c-0.4,0.3-0.8,0-0.8-0.5
	c0-0.3,0.1-0.5,0.2-0.8C186.2,147,186.4,146.8,186.6,146.6z"/>
<path class="st2" d="M192.9,141.2c0.4-0.3,0.8-0.1,0.8,0.5c0,0.3-0.1,0.5-0.2,0.8c-0.1,0.2-0.3,0.4-0.5,0.6c-0.4,0.3-0.8,0-0.8-0.5
	c0-0.3,0.1-0.5,0.2-0.8C192.5,141.5,192.7,141.3,192.9,141.2z"/>
<path class="st2" d="M199.1,141.2c0.4-0.3,0.8-0.1,0.8,0.5c0,0.3-0.1,0.5-0.2,0.8c-0.1,0.2-0.3,0.5-0.6,0.6c-0.4,0.3-0.8,0-0.8-0.5
	c0-0.3,0.1-0.5,0.2-0.8C198.7,141.5,198.9,141.3,199.1,141.2z"/>
<path class="st2" d="M205.4,126.7c0.4-0.3,0.8,0,0.8,0.5c0,0.3-0.1,0.5-0.2,0.8c-0.1,0.2-0.3,0.4-0.6,0.6c-0.4,0.3-0.8,0.1-0.8-0.5
	c0-0.3,0.1-0.5,0.2-0.8C205,127,205.2,126.8,205.4,126.7z"/>
<path class="st2" d="M211.7,133.9c0.4-0.3,0.8-0.1,0.8,0.5c0,0.3-0.1,0.5-0.2,0.8c-0.1,0.2-0.3,0.5-0.6,0.6c-0.4,0.3-0.8,0-0.8-0.5
	c0-0.3,0.1-0.6,0.2-0.8C211.3,134.2,211.5,134,211.7,133.9z"/>
<path class="st2" d="M218,126.7c0.4-0.3,0.8,0,0.8,0.5c0,0.3-0.1,0.5-0.2,0.8c-0.1,0.2-0.3,0.4-0.6,0.6c-0.4,0.3-0.8,0.1-0.8-0.5
	c0-0.3,0.1-0.5,0.2-0.8C217.5,127,217.7,126.8,218,126.7z"/>
<path class="st2" d="M224.2,123.1c0.4-0.3,0.8,0,0.8,0.5c0,0.3-0.1,0.5-0.2,0.8c-0.1,0.2-0.3,0.4-0.6,0.6c-0.4,0.3-0.8,0.1-0.8-0.5
	c0-0.3,0.1-0.6,0.2-0.8C223.8,123.4,224,123.2,224.2,123.1z"/>
<path class="st2" d="M230.5,123.1c0.4-0.3,0.8,0,0.8,0.5c0,0.3-0.1,0.5-0.2,0.8c-0.1,0.2-0.3,0.4-0.6,0.6c-0.4,0.3-0.8,0.1-0.8-0.5
	c0-0.3,0.1-0.5,0.2-0.8C230.1,123.4,230.3,123.2,230.5,123.1z"/>
<path class="st2" d="M236.8,119.4c0.4-0.3,0.8,0,0.8,0.5c0,0.3-0.1,0.5-0.2,0.8c-0.1,0.2-0.3,0.4-0.6,0.6c-0.4,0.3-0.8,0.1-0.8-0.5
	c0-0.3,0.1-0.5,0.2-0.8C236.4,119.8,236.6,119.6,236.8,119.4z"/>
<path class="st2" d="M243.1,119.4c0.4-0.3,0.8,0,0.8,0.5c0,0.3-0.1,0.5-0.2,0.8c-0.1,0.2-0.3,0.4-0.5,0.6c-0.4,0.3-0.8,0.1-0.8-0.5
	c0-0.3,0.1-0.6,0.2-0.8C242.6,119.8,242.8,119.6,243.1,119.4z"/>
<path class="st2" d="M136.4,185.7c0,0-0.1,0-0.1,0c0,0-0.1-0.1-0.1-0.1c0-0.1,0-0.1,0-0.1l6.3-10.9c0,0,0,0,0.1-0.1c0,0,0,0,0.1,0
	l6.1-1.3l6.2-13c0,0,0,0,0.1-0.1c0,0,0,0,0.1,0c0,0,0.1,0,0.1,0c0,0,0.1,0,0.1,0l6.2,3.6l6.2-1.8l6.2-5.4l6.3-7.2
	c0,0,0.1-0.1,0.1-0.1l6.2-1.8l6.2-5.4c0,0,0.1,0,0.1,0h6.2l6.2-14.4c0,0,0-0.1,0.1-0.1c0,0,0.1,0,0.1,0c0,0,0.1,0,0.1,0
	c0,0,0.1,0,0.1,0.1l6.1,7.1l6.1-7.1c0,0,0,0,0.1,0l6.3-3.6c0,0,0.1,0,0.1,0h6.2l6.2-3.6c0,0,0.1,0,0.1,0h6.3c0.1,0,0.1,0,0.1,0.1
	c0,0,0.1,0.1,0.1,0.1c0,0.1,0,0.1-0.1,0.1c0,0-0.1,0.1-0.1,0.1h-6.2l-6.2,3.6h-0.1h-6.2l-6.2,3.6l-6.2,7.2c0,0,0,0-0.1,0
	c0,0-0.1,0-0.1,0c0,0-0.1,0-0.1,0c0,0,0,0-0.1,0l-6.1-7l-6.2,14.2c0,0,0,0.1-0.1,0.1c0,0-0.1,0-0.1,0H193l-6.3,5.3h-0.1l-6.2,1.8
	l-6.2,7.2l-6.3,5.4l-0.1,0l-6.3,1.8c0,0,0,0-0.1,0s-0.1,0-0.1,0l-6.1-3.5l-6.2,12.9c0,0,0,0.1-0.1,0.1c0,0-0.1,0-0.1,0l-6.2,1.3
	l-6.3,10.8C136.5,185.6,136.5,185.7,136.4,185.7C136.5,185.7,136.5,185.7,136.4,185.7z"/>
<g class="st19">
	<path class="st13" d="M136.4,184.6c0.4-0.3,0.8,0,0.8,0.5c0,0.3-0.1,0.5-0.2,0.8c-0.1,0.2-0.3,0.5-0.6,0.6c-0.4,0.3-0.8,0-0.8-0.5
		c0-0.3,0.1-0.5,0.2-0.8C136,185,136.2,184.8,136.4,184.6z"/>
	<path class="st13" d="M142.7,173.8c0.4-0.3,0.8,0,0.8,0.5c0,0.3-0.1,0.6-0.2,0.8c-0.1,0.2-0.3,0.4-0.6,0.6c-0.4,0.3-0.8,0-0.8-0.5
		c0-0.3,0.1-0.5,0.2-0.8C142.3,174.1,142.5,173.9,142.7,173.8z"/>
	<path class="st13" d="M149.6,173.7c0.3-0.5,0.3-1.1,0-1.3c-0.3-0.2-0.8,0.1-1.1,0.7c-0.3,0.5-0.3,1.1,0,1.3
		S149.2,174.2,149.6,173.7z"/>
	<path class="st13" d="M155.2,159.2c0.4-0.3,0.8-0.1,0.8,0.5c0,0.3-0.1,0.5-0.2,0.8c-0.1,0.2-0.3,0.4-0.6,0.6
		c-0.4,0.3-0.8,0-0.8-0.5c0-0.3,0.1-0.5,0.2-0.8C154.8,159.6,155,159.4,155.2,159.2z"/>
	<path class="st13" d="M161.5,162.9c0.4-0.3,0.8,0,0.8,0.5c0,0.3-0.1,0.5-0.2,0.8c-0.1,0.2-0.3,0.4-0.6,0.6c-0.4,0.3-0.8,0-0.8-0.5
		c0-0.3,0.1-0.5,0.2-0.8C161.1,163.3,161.3,163.1,161.5,162.9z"/>
	<path class="st13" d="M167.8,161.1c0.4-0.3,0.8,0,0.8,0.5c0,0.3-0.1,0.5-0.2,0.8c-0.1,0.2-0.3,0.4-0.6,0.6
		c-0.4,0.3-0.8,0.1-0.8-0.5c0-0.3,0.1-0.5,0.2-0.8C167.4,161.4,167.6,161.2,167.8,161.1z"/>
	<path class="st13" d="M174.1,155.7c0.4-0.3,0.8-0.1,0.8,0.5c0,0.3-0.1,0.6-0.2,0.8c-0.1,0.2-0.3,0.4-0.6,0.6
		c-0.4,0.3-0.8,0-0.8-0.5c0-0.3,0.1-0.5,0.2-0.8C173.6,156,173.8,155.8,174.1,155.7z"/>
	<path class="st13" d="M180.3,148.4c0.4-0.3,0.8-0.1,0.8,0.5c0,0.3-0.1,0.5-0.2,0.8c-0.1,0.2-0.3,0.5-0.5,0.6
		c-0.4,0.3-0.8,0-0.8-0.5c0-0.3,0.1-0.5,0.2-0.8C179.9,148.8,180.1,148.6,180.3,148.4z"/>
	<path class="st13" d="M186.6,146.6c0.4-0.3,0.8,0,0.8,0.5c0,0.3-0.1,0.5-0.2,0.8c-0.1,0.2-0.3,0.5-0.6,0.6c-0.4,0.3-0.8,0-0.8-0.5
		c0-0.3,0.1-0.5,0.2-0.8C186.2,147,186.4,146.8,186.6,146.6z"/>
	<path class="st13" d="M192.9,141.2c0.4-0.3,0.8-0.1,0.8,0.5c0,0.3-0.1,0.5-0.2,0.8c-0.1,0.2-0.3,0.4-0.5,0.6
		c-0.4,0.3-0.8,0-0.8-0.5c0-0.3,0.1-0.5,0.2-0.8C192.5,141.5,192.7,141.3,192.9,141.2z"/>
	<path class="st13" d="M199.1,141.2c0.4-0.3,0.8-0.1,0.8,0.5c0,0.3-0.1,0.5-0.2,0.8c-0.1,0.2-0.3,0.5-0.6,0.6
		c-0.4,0.3-0.8,0-0.8-0.5c0-0.3,0.1-0.5,0.2-0.8C198.7,141.5,198.9,141.3,199.1,141.2z"/>
	<path class="st13" d="M205.4,126.7c0.4-0.3,0.8,0,0.8,0.5c0,0.3-0.1,0.5-0.2,0.8c-0.1,0.2-0.3,0.4-0.6,0.6
		c-0.4,0.3-0.8,0.1-0.8-0.5c0-0.3,0.1-0.5,0.2-0.8C205,127,205.2,126.8,205.4,126.7z"/>
	<path class="st13" d="M211.7,133.9c0.4-0.3,0.8-0.1,0.8,0.5c0,0.3-0.1,0.5-0.2,0.8c-0.1,0.2-0.3,0.5-0.6,0.6
		c-0.4,0.3-0.8,0-0.8-0.5c0-0.3,0.1-0.6,0.2-0.8C211.3,134.2,211.5,134,211.7,133.9z"/>
	<path class="st13" d="M218,126.7c0.4-0.3,0.8,0,0.8,0.5c0,0.3-0.1,0.5-0.2,0.8c-0.1,0.2-0.3,0.4-0.6,0.6c-0.4,0.3-0.8,0.1-0.8-0.5
		c0-0.3,0.1-0.5,0.2-0.8C217.5,127,217.7,126.8,218,126.7z"/>
	<path class="st13" d="M224.2,123.1c0.4-0.3,0.8,0,0.8,0.5c0,0.3-0.1,0.5-0.2,0.8c-0.1,0.2-0.3,0.4-0.6,0.6
		c-0.4,0.3-0.8,0.1-0.8-0.5c0-0.3,0.1-0.6,0.2-0.8C223.8,123.4,224,123.2,224.2,123.1z"/>
	<path class="st13" d="M230.5,123.1c0.4-0.3,0.8,0,0.8,0.5c0,0.3-0.1,0.5-0.2,0.8c-0.1,0.2-0.3,0.4-0.6,0.6
		c-0.4,0.3-0.8,0.1-0.8-0.5c0-0.3,0.1-0.5,0.2-0.8C230.1,123.4,230.3,123.2,230.5,123.1z"/>
	<path class="st13" d="M236.8,119.4c0.4-0.3,0.8,0,0.8,0.5c0,0.3-0.1,0.5-0.2,0.8c-0.1,0.2-0.3,0.4-0.6,0.6
		c-0.4,0.3-0.8,0.1-0.8-0.5c0-0.3,0.1-0.5,0.2-0.8C236.4,119.8,236.6,119.6,236.8,119.4z"/>
	<path class="st13" d="M243.1,119.4c0.4-0.3,0.8,0,0.8,0.5c0,0.3-0.1,0.5-0.2,0.8c-0.1,0.2-0.3,0.4-0.5,0.6
		c-0.4,0.3-0.8,0.1-0.8-0.5c0-0.3,0.1-0.6,0.2-0.8C242.6,119.8,242.8,119.6,243.1,119.4z"/>
	<path class="st13" d="M136.4,185.7c0,0-0.1,0-0.1,0c0,0-0.1-0.1-0.1-0.1c0-0.1,0-0.1,0-0.1l6.3-10.9c0,0,0,0,0.1-0.1c0,0,0,0,0.1,0
		l6.1-1.3l6.2-13c0,0,0,0,0.1-0.1c0,0,0,0,0.1,0c0,0,0.1,0,0.1,0c0,0,0.1,0,0.1,0l6.2,3.6l6.2-1.8l6.2-5.4l6.3-7.2
		c0,0,0.1-0.1,0.1-0.1l6.2-1.8l6.2-5.4c0,0,0.1,0,0.1,0h6.2l6.2-14.4c0,0,0-0.1,0.1-0.1c0,0,0.1,0,0.1,0c0,0,0.1,0,0.1,0
		c0,0,0.1,0,0.1,0.1l6.1,7.1l6.1-7.1c0,0,0,0,0.1,0l6.3-3.6c0,0,0.1,0,0.1,0h6.2l6.2-3.6c0,0,0.1,0,0.1,0h6.3c0.1,0,0.1,0,0.1,0.1
		c0,0,0.1,0.1,0.1,0.1c0,0.1,0,0.1-0.1,0.1c0,0-0.1,0.1-0.1,0.1h-6.2l-6.2,3.6h-0.1h-6.2l-6.2,3.6l-6.2,7.2c0,0,0,0-0.1,0
		c0,0-0.1,0-0.1,0c0,0-0.1,0-0.1,0c0,0,0,0-0.1,0l-6.1-7l-6.2,14.2c0,0,0,0.1-0.1,0.1c0,0-0.1,0-0.1,0H193l-6.3,5.3h-0.1l-6.2,1.8
		l-6.2,7.2l-6.3,5.4l-0.1,0l-6.3,1.8c0,0,0,0-0.1,0s-0.1,0-0.1,0l-6.1-3.5l-6.2,12.9c0,0,0,0.1-0.1,0.1c0,0-0.1,0-0.1,0l-6.2,1.3
		l-6.3,10.8C136.5,185.6,136.5,185.7,136.4,185.7C136.5,185.7,136.5,185.7,136.4,185.7z"/>
</g>
<path class="st18" d="M139.7,157.8l6.1-3.5c0.3-0.2,0.6-0.1,0.6,0.3c0,0.2-0.1,0.4-0.2,0.5c-0.1,0.2-0.2,0.3-0.4,0.4l-6.1,3.5
	c-0.3,0.2-0.6,0.1-0.6-0.3c0-0.2,0.1-0.4,0.2-0.5C139.4,158,139.6,157.9,139.7,157.8z"/>
<path class="st2" d="M136.4,159.2c0.4-0.3,0.8-0.1,0.8,0.5c0,0.3-0.1,0.5-0.2,0.8c-0.1,0.2-0.3,0.4-0.6,0.6c-0.4,0.3-0.8,0-0.8-0.5
	c0-0.3,0.1-0.6,0.2-0.8C136,159.6,136.2,159.4,136.4,159.2z"/>
<path class="st13" d="M136.4,159.2c0.4-0.3,0.8-0.1,0.8,0.5c0,0.3-0.1,0.5-0.2,0.8c-0.1,0.2-0.3,0.4-0.6,0.6c-0.4,0.3-0.8,0-0.8-0.5
	c0-0.3,0.1-0.6,0.2-0.8C136,159.6,136.2,159.4,136.4,159.2z"/>
<path class="st18" d="M139.7,161.4l6.1-3.5c0.3-0.2,0.6-0.1,0.6,0.3c0,0.2-0.1,0.4-0.2,0.5c-0.1,0.2-0.2,0.3-0.4,0.4l-6.1,3.5
	c-0.3,0.2-0.6,0-0.6-0.3c0-0.2,0.1-0.4,0.2-0.5C139.4,161.6,139.6,161.5,139.7,161.4z"/>
<path class="st2" d="M136.4,162.9c0.4-0.3,0.8-0.1,0.8,0.5c0,0.3-0.1,0.5-0.2,0.8c-0.1,0.2-0.3,0.5-0.6,0.6c-0.4,0.3-0.8,0-0.8-0.5
	c0-0.3,0.1-0.6,0.2-0.8C136,163.3,136.2,163,136.4,162.9z"/>
<path class="st2" d="M136.4,211.1c0,0-0.1,0-0.1-0.1c0,0,0,0,0-0.1c0,0,0,0,0-0.1c0,0,0-0.1,0-0.1c0,0,0,0,0-0.1l3.2-3.3l3.1-0.4
	l3.2-4.1l3.2,0.4l3.1-2.8l3.1-1.9l3.2-4.4l3.2,1l3-2.7c0,0,0.1-0.1,0.1-0.1c0.1,0,0.1,0,0.1,0.1c0,0,0,0,0,0.1c0,0,0,0,0,0.1
	c0,0,0,0.1,0,0.1c0,0,0,0,0,0.1l-3.2,2.9l-3.1-1l-3.1,4.3l-3.1,1.9l-3.2,2.9l-3.1-0.4l-3.1,4l-3.3,0.4l-3.1,3.2
	C136.5,211.1,136.5,211.1,136.4,211.1z"/>
<path class="st8" d="M137.7,200.6C137.7,200.5,137.7,200.5,137.7,200.6c0.1-0.1,0.1-0.1,0.2-0.1c0.1-0.1,0.3-0.1,0.5-0.1
	c0.1,0,0.3,0,0.4,0.1c0.1,0.1,0.2,0.2,0.2,0.4c0.1,0.2,0.1,0.4,0.1,0.6c0,0.2,0,0.5-0.1,0.7c-0.1,0.2-0.1,0.5-0.2,0.7
	c-0.1,0.2-0.2,0.4-0.4,0.6c-0.1,0.2-0.3,0.3-0.5,0.4c-0.1,0.1-0.3,0.1-0.5,0.1c-0.1,0-0.3-0.1-0.4-0.1c-0.1-0.1-0.2-0.2-0.3-0.4
	c-0.1-0.2-0.1-0.4-0.1-0.6c0-0.1,0-0.3,0-0.4c0-0.1,0-0.3,0.1-0.4c0-0.1,0.1-0.2,0.1-0.4c0-0.1,0.1-0.2,0.1-0.3l0.8-2.4
	c0,0,0-0.1,0.1-0.1c0,0,0,0,0-0.1c0,0,0,0,0.1,0l0.3-0.1c0,0,0,0,0,0c0,0,0,0,0,0c0,0,0,0,0,0c0,0,0,0,0,0c0,0,0,0,0,0.1
	c0,0,0,0,0,0.1v0L137.7,200.6z M137.1,202.6c0,0.1,0,0.2,0.1,0.4c0,0.1,0.1,0.2,0.2,0.3c0.1,0.1,0.1,0.1,0.2,0.1
	c0.1,0,0.2,0,0.3-0.1c0.1-0.1,0.2-0.2,0.3-0.3c0.1-0.1,0.2-0.2,0.2-0.4c0.1-0.3,0.2-0.6,0.2-0.9c0-0.1,0-0.2,0-0.4
	c0-0.1-0.1-0.2-0.2-0.3c-0.1-0.1-0.1-0.1-0.2-0.1c-0.1,0-0.2,0-0.3,0.1c-0.1,0.1-0.2,0.2-0.3,0.3c-0.1,0.1-0.2,0.2-0.2,0.4
	c-0.1,0.1-0.1,0.3-0.2,0.4C137.1,202.3,137.1,202.4,137.1,202.6z"/>
<path class="st8" d="M139.8,201.4c0,0.1,0,0.1,0.1,0.2c0,0.1,0.1,0.1,0.1,0.1c0.1,0,0.1,0,0.2,0c0.1,0,0.2-0.1,0.4-0.1
	c0.1-0.1,0.2-0.1,0.3-0.2c0.1-0.1,0.2-0.2,0.2-0.3c0.1-0.1,0.1-0.2,0.2-0.4c0-0.1,0.1-0.3,0.1-0.4c0-0.1,0-0.2-0.1-0.4
	c0-0.1-0.1-0.1-0.1-0.2c-0.1,0-0.2,0-0.2,0c-0.1,0-0.2,0.1-0.3,0.1l-0.4,0.2c0,0,0,0,0,0c0,0,0,0,0,0c0,0,0-0.1,0-0.1v-0.3
	c0,0,0-0.1,0-0.1l0-0.1l0.8-1.9l-1.3,0.8c0,0,0,0,0,0c0,0,0,0,0,0s0,0,0,0c0,0,0,0,0,0c0,0,0-0.1,0-0.1V198c0-0.1,0-0.1,0-0.2
	c0,0,0-0.1,0.1-0.1l1.8-1c0,0,0.1,0,0.1,0c0,0,0,0,0,0.1c0,0,0,0,0,0.1v0.2c0,0,0,0.1,0,0.1c0,0.1,0,0.1-0.1,0.1l-0.8,1.8
	c0.1-0.1,0.3-0.1,0.4-0.1c0.1,0,0.1,0,0.2,0s0.1,0,0.2,0.1c0.1,0.1,0.2,0.2,0.2,0.3c0.1,0.2,0.1,0.4,0.1,0.5c0,0.2,0,0.5-0.1,0.7
	c-0.1,0.2-0.1,0.4-0.2,0.6c-0.1,0.2-0.2,0.4-0.4,0.5c-0.1,0.1-0.3,0.3-0.4,0.4c-0.2,0.1-0.3,0.2-0.5,0.2c-0.1,0-0.3,0-0.4-0.1
	c-0.1-0.1-0.2-0.2-0.2-0.3c-0.1-0.1-0.1-0.3-0.1-0.4c0,0,0-0.1,0-0.1c0,0,0-0.1,0.1-0.1l0.2-0.1c0,0,0.1,0,0.1,0
	C139.8,201.3,139.8,201.4,139.8,201.4z"/>
<path class="st8" d="M142.5,199.9c0,0.1,0,0.1,0.1,0.2c0,0.1,0.1,0.1,0.1,0.1c0.1,0,0.1,0,0.2,0c0.1,0,0.2-0.1,0.4-0.1
	c0.1-0.1,0.2-0.1,0.3-0.2c0.1-0.1,0.2-0.2,0.2-0.3c0.1-0.1,0.1-0.2,0.2-0.4c0-0.1,0.1-0.3,0.1-0.4c0-0.1,0-0.2-0.1-0.4
	c0-0.1-0.1-0.1-0.1-0.2c-0.1,0-0.2,0-0.2,0c-0.1,0-0.2,0.1-0.3,0.1l-0.4,0.2c0,0,0,0,0,0c0,0,0,0,0,0c0,0,0-0.1,0-0.1v-0.3
	c0,0,0-0.1,0-0.1c0,0,0-0.1,0-0.1l0.8-1.9l-1.3,0.8c0,0,0,0,0,0s0,0,0,0c0,0,0-0.1,0-0.1v-0.3c0-0.1,0-0.1,0-0.2c0,0,0,0,0-0.1
	s0,0,0.1,0l1.8-1.1c0,0,0,0,0,0c0,0,0,0,0,0c0,0,0,0.1,0,0.1v0.3c0,0,0,0.1,0,0.1c0,0,0,0.1-0.1,0.1l-0.8,1.8
	c0.1-0.1,0.3-0.1,0.4-0.1c0.1,0,0.2,0,0.3,0.1c0.1,0.1,0.2,0.2,0.2,0.3c0.1,0.2,0.1,0.4,0.1,0.6c0,0.2,0,0.5-0.1,0.7
	c-0.1,0.2-0.1,0.4-0.2,0.6c-0.1,0.2-0.2,0.4-0.4,0.5c-0.1,0.1-0.3,0.3-0.4,0.4c-0.2,0.1-0.3,0.2-0.5,0.2c-0.1,0-0.3,0-0.4-0.1
	c-0.1-0.1-0.2-0.2-0.2-0.3c0-0.1-0.1-0.3-0.1-0.4c0,0,0-0.1,0-0.1c0,0,0-0.1,0.1-0.1l0.2-0.1C142.4,199.8,142.4,199.8,142.5,199.9
	C142.5,199.8,142.5,199.8,142.5,199.9C142.5,199.8,142.5,199.8,142.5,199.9z"/>
<path class="st18" d="M137,213.6l27.1-15.7c0.3-0.2,0.6,0,0.6,0.3c0,0.2-0.1,0.4-0.2,0.5c-0.1,0.2-0.2,0.3-0.4,0.4L137,214.8
	c-0.3,0.2-0.6,0.1-0.6-0.3c0-0.2,0.1-0.4,0.2-0.5C136.7,213.9,136.8,213.7,137,213.6z"/>
<path class="st18" d="M137,195.5l6.1-3.5c0.3-0.2,0.6-0.1,0.6,0.3c0,0.2-0.1,0.4-0.2,0.5c-0.1,0.2-0.2,0.3-0.4,0.4l-6.1,3.5
	c-0.3,0.2-0.6,0.1-0.6-0.3c0-0.2,0.1-0.4,0.2-0.5C136.7,195.8,136.8,195.6,137,195.5z"/>
<path class="st2" d="M136.4,232.9C136.4,232.9,136.4,232.8,136.4,232.9c-0.1,0-0.1,0-0.1-0.1c0,0,0,0,0-0.1c0,0,0,0,0-0.1
	c0,0,0-0.1,0-0.1c0,0,0,0,0-0.1l3.2-3.3l3.1-0.4l3.2-2.8l3.1-0.8l3.2-6.3l3.2,1.5l3.1-2.7h0.1l3-0.6l3.1-5.3c0,0,0,0,0-0.1
	c0,0,0,0,0.1,0c0,0,0.1,0,0.1,0c0,0,0.1,0,0.1,0c0,0,0,0,0.1,0.1c0,0,0,0,0,0.1c0,0,0,0.1,0,0.1c0,0,0,0.1,0,0.1l-3.2,5.5l-3.2,0.6
	l-3.2,2.8l-3.1-1.5l-3.1,6.2l-3.2,0.9l-3.1,2.8l-3.1,0.4l-3.1,3.2c0,0,0,0.1-0.1,0.1C136.5,232.8,136.5,232.9,136.4,232.9z"/>
<g class="st19">
	<path class="st13" d="M136.4,232.9C136.4,232.9,136.4,232.8,136.4,232.9c-0.1,0-0.1,0-0.1-0.1c0,0,0,0,0-0.1c0,0,0,0,0-0.1
		c0,0,0-0.1,0-0.1c0,0,0,0,0-0.1l3.2-3.3l3.1-0.4l3.2-2.8l3.1-0.8l3.2-6.3l3.2,1.5l3.1-2.7h0.1l3-0.6l3.1-5.3c0,0,0,0,0-0.1
		c0,0,0,0,0.1,0c0,0,0.1,0,0.1,0c0,0,0.1,0,0.1,0c0,0,0,0,0.1,0.1c0,0,0,0,0,0.1c0,0,0,0.1,0,0.1c0,0,0,0.1,0,0.1l-3.2,5.5l-3.2,0.6
		l-3.2,2.8l-3.1-1.5l-3.1,6.2l-3.2,0.9l-3.1,2.8l-3.1,0.4l-3.1,3.2c0,0,0,0.1-0.1,0.1C136.5,232.8,136.5,232.9,136.4,232.9z"/>
</g>
<path class="st8" d="M138,225.2c0,0.1,0,0.1,0,0.2c0,0-0.1,0.1-0.1,0.1l-0.2,0.1c0,0,0,0,0,0c0,0,0,0,0,0c0,0,0-0.1,0-0.1v-3.9
	l-0.8,1.3c0,0.1-0.1,0.1-0.1,0.1c0,0,0,0,0,0c0,0,0,0,0,0l-0.1-0.2c0,0,0,0,0-0.1c0,0,0,0,0-0.1c0-0.1,0-0.1,0-0.2l1-1.7
	c0,0,0-0.1,0.1-0.1l0.1,0l0.2-0.1c0,0,0,0,0,0c0,0,0,0,0,0c0,0,0,0,0,0.1c0,0,0,0,0,0.1L138,225.2z"/>
<path class="st8" d="M140,221.6c0.1-0.2,0.2-0.3,0.2-0.5c0-0.2,0.1-0.4,0.1-0.6c0-0.2,0-0.4-0.1-0.5c-0.1-0.1-0.2-0.1-0.4,0
	c-0.1,0.1-0.2,0.1-0.3,0.2c-0.1,0.1-0.1,0.2-0.2,0.3c0,0.1-0.1,0.2-0.1,0.4c0,0.1-0.1,0.2-0.1,0.4c0,0.1,0,0.1,0,0.1
	c0,0,0,0.1-0.1,0.1l-0.2,0.1c0,0-0.1,0-0.1,0c0,0,0-0.1,0-0.1c0-0.2,0-0.4,0.1-0.6c0-0.2,0.1-0.4,0.2-0.6c0.1-0.2,0.2-0.4,0.3-0.6
	c0.1-0.2,0.3-0.3,0.5-0.4c0.1-0.1,0.3-0.1,0.4-0.1c0.1,0,0.2,0.1,0.3,0.1c0.1,0.1,0.2,0.2,0.2,0.4c0,0.2,0.1,0.4,0.1,0.5
	c0,0.1,0,0.3,0,0.4c0,0.1,0,0.3-0.1,0.4c0,0.1-0.1,0.3-0.1,0.4c-0.1,0.1-0.1,0.3-0.2,0.4l-1,2.1l1.4-0.8c0,0,0,0,0,0c0,0,0,0,0,0
	c0,0,0,0.1,0,0.1v0.3c0,0.1,0,0.1,0,0.2c0,0,0,0,0,0.1c0,0,0,0-0.1,0l-2,1.1c0,0,0,0,0,0c0,0,0,0,0,0c0,0,0-0.1,0-0.1v-0.3
	c0,0,0-0.1,0-0.1c0-0.1,0-0.1,0.1-0.2L140,221.6z"/>
<path class="st8" d="M143.7,219c0,0.2,0,0.4,0,0.6c0,0.2,0,0.4,0,0.6c0,0.3,0,0.5-0.1,0.8c0,0.3-0.1,0.5-0.2,0.8
	c-0.1,0.2-0.2,0.4-0.4,0.6c-0.1,0.2-0.3,0.3-0.5,0.4c-0.2,0.1-0.3,0.2-0.5,0.2c-0.1,0-0.1,0-0.2-0.1c-0.1,0-0.1-0.1-0.2-0.1
	c-0.1-0.1-0.2-0.3-0.2-0.5c0-0.2-0.1-0.5-0.1-0.7v-1.2c0-0.3,0-0.5,0.1-0.8c0-0.3,0.1-0.5,0.2-0.8c0.1-0.2,0.2-0.4,0.4-0.6
	c0.1-0.2,0.3-0.3,0.5-0.5c0.2-0.1,0.3-0.2,0.5-0.1c0.1,0,0.1,0,0.2,0.1c0.1,0,0.1,0.1,0.2,0.1c0.1,0.1,0.2,0.3,0.2,0.5
	C143.6,218.5,143.7,218.8,143.7,219z M141.8,221.4c0,0.3,0,0.6,0.2,0.9c0.1,0.1,0.3,0.1,0.5,0c0.2-0.1,0.4-0.4,0.5-0.6
	c0.1-0.4,0.2-0.7,0.2-1.1v-1.2c0-0.3,0-0.6-0.2-0.9c-0.1-0.1-0.3-0.1-0.5,0c-0.2,0.1-0.4,0.4-0.5,0.6c-0.1,0.4-0.2,0.7-0.2,1.1
	V221.4z"/>
<path class="st18" d="M137,235.3l27.1-15.7c0.3-0.2,0.6-0.1,0.6,0.3c0,0.2-0.1,0.4-0.2,0.5c-0.1,0.2-0.2,0.3-0.4,0.4L137,236.6
	c-0.3,0.2-0.6,0-0.6-0.3c0-0.2,0.1-0.4,0.2-0.5C136.7,235.6,136.8,235.4,137,235.3z"/>
<path class="st18" d="M137,217.2l6.1-3.5c0.3-0.2,0.6,0,0.6,0.3c0,0.2-0.1,0.4-0.2,0.5c-0.1,0.2-0.2,0.3-0.4,0.4l-6.1,3.5
	c-0.3,0.2-0.6,0.1-0.6-0.3c0-0.2,0.1-0.4,0.2-0.5C136.7,217.5,136.8,217.3,137,217.2z"/>
<path class="st2" d="M174.1,189.4C174,189.4,174,189.3,174.1,189.4c-0.1,0-0.1-0.1-0.1-0.1c0,0,0,0,0-0.1c0,0,0,0,0-0.1
	c0,0,0,0,0-0.1c0,0,0,0,0-0.1l3.1-2.5l3.2-3.6l3.2-0.5l3.1-0.7l3.2-3.7l3.1,0.5l3.1-4.9l3.2,0l3.1-2.7c0,0,0,0,0.1,0
	c0,0,0.1,0,0.1,0s0.1,0,0.1,0c0,0,0,0,0.1,0c0,0,0.1,0.1,0.1,0.1c0,0.1,0,0.1-0.1,0.1l-3.2,2.8l-3.1-0.1l-3.1,5l-3.2-0.6l-3.1,3.7
	l-3.2,0.7l-3.1,0.4l-3.1,3.5l-3.2,2.6C174.1,189.4,174.1,189.4,174.1,189.4z"/>
<path class="st8" d="M175.3,178.8L175.3,178.8l0.2-0.1c0.1-0.1,0.3-0.1,0.4-0.1c0.1,0,0.3,0,0.4,0.1c0.1,0.1,0.2,0.2,0.2,0.4
	c0.1,0.2,0.1,0.4,0.1,0.6c0,0.2,0,0.5-0.1,0.7c-0.1,0.2-0.1,0.5-0.2,0.7c-0.1,0.2-0.2,0.4-0.4,0.6c-0.1,0.2-0.3,0.3-0.5,0.4
	c-0.1,0.1-0.3,0.1-0.5,0.1c-0.1,0-0.3-0.1-0.4-0.1c-0.1-0.1-0.2-0.3-0.2-0.5c-0.1-0.2-0.1-0.4-0.1-0.6c0-0.1,0-0.3,0-0.4
	c0-0.1,0-0.3,0.1-0.4l0.1-0.4c0-0.1,0.1-0.2,0.1-0.3l0.8-2.4l0-0.1c0,0,0.1-0.1,0.1-0.1l0.3-0.1c0,0,0.1,0,0.1,0c0,0,0,0.1,0,0.1
	c0,0,0,0,0,0.1c0,0,0,0,0,0L175.3,178.8z M174.7,180.8c0,0.1,0,0.3,0.1,0.4c0,0.1,0.1,0.2,0.1,0.3c0.1,0.1,0.1,0.1,0.2,0.1
	c0.1,0,0.2,0,0.3-0.1c0.1-0.1,0.2-0.2,0.3-0.3c0.1-0.1,0.2-0.2,0.2-0.4c0.1-0.1,0.1-0.3,0.1-0.4c0-0.1,0.1-0.3,0.1-0.4
	c0-0.1,0-0.2-0.1-0.4c0-0.1-0.1-0.2-0.1-0.3c-0.1-0.1-0.2-0.1-0.2-0.1c-0.1,0-0.2,0-0.3,0.1c-0.1,0.1-0.2,0.2-0.3,0.3
	c-0.1,0.1-0.2,0.2-0.2,0.4c-0.1,0.1-0.1,0.3-0.1,0.4C174.7,180.5,174.7,180.6,174.7,180.8z"/>
<path class="st8" d="M178.5,177.6c0.1-0.2,0.2-0.3,0.2-0.5c0-0.2,0.1-0.4,0.1-0.6c0-0.2,0-0.4-0.1-0.5c-0.1-0.1-0.2-0.1-0.4,0
	c-0.1,0.1-0.2,0.1-0.3,0.2c-0.1,0.1-0.1,0.2-0.2,0.3c-0.1,0.1-0.1,0.2-0.1,0.3c0,0.1-0.1,0.2-0.1,0.4c0,0.1,0,0.1,0,0.1
	c0,0,0,0.1-0.1,0.1l-0.2,0.1c0,0,0,0,0,0c0,0,0,0,0,0c0,0,0-0.1,0-0.1c0-0.2,0-0.4,0.1-0.6c0-0.2,0.1-0.4,0.2-0.6
	c0.1-0.2,0.2-0.4,0.3-0.6c0.1-0.2,0.3-0.3,0.5-0.4c0.1-0.1,0.3-0.1,0.4-0.1c0.1,0,0.1,0,0.2,0c0.1,0,0.1,0.1,0.1,0.1
	c0.1,0.1,0.2,0.2,0.2,0.4c0,0.2,0.1,0.4,0.1,0.6c0,0.1,0,0.3,0,0.4c0,0.1,0,0.3-0.1,0.4c0,0.1-0.1,0.3-0.1,0.4
	c-0.1,0.1-0.1,0.3-0.2,0.4l-1,2.1l1.4-0.8c0,0,0,0,0,0c0,0,0,0,0,0c0,0,0,0.1,0,0.1v0.3c0,0.1,0,0.1,0,0.2c0,0,0,0.1-0.1,0.1l-2,1.1
	c0,0-0.1,0-0.1,0c0,0,0-0.1,0-0.1v-0.3c0,0,0-0.1,0-0.1c0-0.1,0-0.1,0.1-0.2L178.5,177.6z"/>
<path class="st8" d="M181.6,173.5C181.6,173.5,181.6,173.5,181.6,173.5C181.7,173.5,181.7,173.5,181.6,173.5c0.1,0,0.1,0,0.1,0.1
	s0,0,0,0.1v0.3c0,0,0,0.1,0,0.1c0,0.1,0,0.1,0,0.2l-1,4.6c0,0.1,0,0.1-0.1,0.1c0,0,0,0.1-0.1,0.1l-0.2,0.1c0,0,0,0,0,0c0,0,0,0,0,0
	c0,0,0-0.1,0-0.1c0,0,0,0,0-0.1l1-4.6l-1.5,0.9c0,0,0,0,0,0s0,0,0,0c0,0,0-0.1,0-0.1v-0.3c0-0.1,0-0.1,0-0.2c0,0,0-0.1,0.1-0.1
	L181.6,173.5z"/>
<path class="st18" d="M174.6,191.9l27.1-15.7c0.3-0.2,0.6,0,0.6,0.3c0,0.2-0.1,0.4-0.2,0.5s-0.2,0.3-0.4,0.4l-27.1,15.7
	c-0.3,0.2-0.6,0-0.6-0.3c0-0.2,0.1-0.4,0.2-0.5C174.3,192.1,174.5,192,174.6,191.9z"/>
<path class="st18" d="M174.6,173.8l6.1-3.5c0.3-0.2,0.6-0.1,0.6,0.3c0,0.2-0.1,0.4-0.2,0.5c-0.1,0.2-0.2,0.3-0.4,0.4l-6.1,3.5
	c-0.3,0.2-0.6,0.1-0.6-0.3c0-0.2,0.1-0.4,0.2-0.5C174.3,174,174.5,173.9,174.6,173.8z"/>
<path class="st2" d="M174.1,211.1c0,0-0.1,0-0.1,0c0,0-0.1-0.1-0.1-0.1c0-0.1,0-0.1,0-0.1l3.2-5.2l3.2,0.6l3-0.8l3.1-3.8l3.1-0.8
	l3.2-5.7l3.2,0.9l3-0.6l3.1-2.7c0,0,0,0,0.1,0c0,0,0.1,0,0.1,0c0,0,0.1,0,0.1,0c0,0,0,0,0.1,0c0,0,0,0,0,0.1c0,0,0,0.1,0,0.1
	c0,0,0,0.1,0,0.1c0,0,0,0-0.1,0.1l-3.2,2.8h0l-3.2,0.6l-3-0.9l-3.1,5.5l-3.2,0.8l-3.1,3.8h-0.1l-3.2,0.9h0l-3-0.6l-3.1,5
	C174.2,211,174.2,211,174.1,211.1C174.1,211.1,174.1,211.1,174.1,211.1z"/>
<g class="st19">
	<path class="st13" d="M174.1,211.1c0,0-0.1,0-0.1,0c0,0-0.1-0.1-0.1-0.1c0-0.1,0-0.1,0-0.1l3.2-5.2l3.2,0.6l3-0.8l3.1-3.8l3.1-0.8
		l3.2-5.7l3.2,0.9l3-0.6l3.1-2.7c0,0,0,0,0.1,0c0,0,0.1,0,0.1,0c0,0,0.1,0,0.1,0c0,0,0,0,0.1,0c0,0,0,0,0,0.1c0,0,0,0.1,0,0.1
		c0,0,0,0.1,0,0.1c0,0,0,0-0.1,0.1l-3.2,2.8h0l-3.2,0.6l-3-0.9l-3.1,5.5l-3.2,0.8l-3.1,3.8h-0.1l-3.2,0.9h0l-3-0.6l-3.1,5
		C174.2,211,174.2,211,174.1,211.1C174.1,211.1,174.1,211.1,174.1,211.1z"/>
</g>
<path class="st8" d="M175.5,202L175.5,202l-0.1,0c-0.1,0.1-0.3,0.1-0.4,0.1c-0.1,0-0.3,0-0.4-0.1c-0.1-0.1-0.2-0.2-0.2-0.3
	c-0.1-0.2-0.1-0.4-0.1-0.7c0-0.2,0-0.5,0.1-0.7c0.1-0.2,0.1-0.5,0.2-0.7c0.1-0.2,0.2-0.4,0.4-0.6c0.1-0.2,0.3-0.3,0.4-0.4
	c0.1-0.1,0.3-0.1,0.5-0.2c0.1,0,0.3,0.1,0.4,0.1c0.1,0.1,0.2,0.2,0.2,0.4c0.1,0.2,0.1,0.4,0.1,0.6c0,0.1,0,0.3,0,0.4
	c0,0.1-0.1,0.3-0.1,0.4c0,0.1-0.1,0.3-0.1,0.4c0,0.1-0.1,0.2-0.1,0.3l-0.8,2.4l-0.1,0.1c0,0,0,0,0,0.1c0,0,0,0-0.1,0L175,204
	c0,0,0,0,0,0c0,0,0,0,0,0c0,0,0-0.1,0-0.1c0,0,0,0,0-0.1c0,0,0,0,0,0L175.5,202z M176.1,200c0-0.1,0-0.3-0.1-0.4
	c0-0.1-0.1-0.2-0.1-0.2c0,0-0.1-0.1-0.1-0.1c0,0-0.1,0-0.1,0c-0.1,0-0.2,0-0.3,0.1c-0.1,0.1-0.2,0.1-0.3,0.2
	c-0.1,0.1-0.2,0.2-0.2,0.3c-0.1,0.3-0.2,0.6-0.2,0.9c0,0.1,0,0.3,0,0.4c0,0.1,0.1,0.2,0.1,0.2c0.1,0.1,0.1,0.1,0.2,0.1
	c0.1,0,0.2,0,0.3-0.1c0.1-0.1,0.2-0.1,0.3-0.2c0.1-0.1,0.2-0.2,0.2-0.3c0.1-0.1,0.1-0.3,0.1-0.4C176.1,200.3,176.1,200.1,176.1,200z
	"/>
<path class="st8" d="M177.3,201.4c0,0.1,0,0.1,0.1,0.2c0,0.1,0.1,0.1,0.1,0.1c0.1,0,0.1,0,0.2,0c0.1,0,0.2-0.1,0.4-0.1
	c0.1-0.1,0.2-0.1,0.3-0.2c0.1-0.1,0.2-0.2,0.2-0.3c0.1-0.1,0.1-0.2,0.2-0.4c0-0.1,0.1-0.3,0.1-0.4c0-0.1,0-0.2-0.1-0.4
	c0-0.1-0.1-0.1-0.1-0.2c-0.1,0-0.2,0-0.2,0c-0.1,0-0.2,0.1-0.3,0.1l-0.4,0.2c0,0,0,0,0,0c0,0,0,0,0,0c0,0,0,0,0-0.1c0,0,0,0,0-0.1
	v-0.3c0,0,0-0.1,0-0.1l0.1-0.1l0.8-1.9l-1.3,0.8c0,0,0,0,0,0s0,0,0,0c0,0,0-0.1,0-0.1v-0.3c0-0.1,0-0.1,0-0.2c0,0,0-0.1,0.1-0.1
	l1.8-1c0,0,0,0,0,0c0,0,0,0,0,0c0,0,0,0.1,0,0.1v0.3c0,0,0,0.1,0,0.1c0,0.1,0,0.1-0.1,0.1l-0.8,1.8c0.1-0.1,0.3-0.1,0.4-0.1
	c0.1,0,0.2,0,0.3,0.1c0.1,0.1,0.2,0.2,0.2,0.3c0.1,0.2,0.1,0.4,0.1,0.5c0,0.2,0,0.5-0.1,0.7c-0.1,0.2-0.1,0.4-0.2,0.6
	c-0.1,0.2-0.2,0.4-0.4,0.5c-0.1,0.1-0.3,0.3-0.4,0.4c-0.2,0.1-0.3,0.2-0.5,0.2c-0.1,0-0.3,0-0.4-0.1c-0.1-0.1-0.2-0.2-0.2-0.3
	c0-0.1-0.1-0.3-0.1-0.4c0,0,0-0.1,0-0.1c0,0,0-0.1,0.1-0.1l0.2-0.1C177.2,201.4,177.3,201.4,177.3,201.4
	C177.3,201.4,177.3,201.4,177.3,201.4C177.3,201.4,177.3,201.4,177.3,201.4z"/>
<path class="st18" d="M174.6,213.6l27.1-15.7c0.3-0.2,0.6-0.1,0.6,0.3c0,0.2-0.1,0.4-0.2,0.5c-0.1,0.2-0.2,0.3-0.4,0.4l-27.1,15.7
	c-0.3,0.2-0.6,0-0.6-0.3c0-0.2,0.1-0.4,0.2-0.5C174.3,213.8,174.5,213.7,174.6,213.6z"/>
<path class="st18" d="M174.6,195.5l6.1-3.5c0.3-0.2,0.6,0,0.6,0.3c0,0.2-0.1,0.4-0.2,0.5c-0.1,0.2-0.2,0.3-0.4,0.4l-6.1,3.5
	c-0.3,0.2-0.6,0.1-0.6-0.3c0-0.2,0.1-0.4,0.2-0.5C174.3,195.7,174.5,195.6,174.6,195.5z"/>
<path class="st2" d="M214.8,154.1c0.5-0.4,1.1-0.6,1.7-0.6c0.6-0.1,1.2,0.1,1.8,0.3l-3.6,9.6L214.8,154.1z"/>
<path class="st2" d="M211.3,158c0.8-1.6,2.1-2.9,3.6-3.9v9.4L211.3,158z"/>
<path class="st2" d="M209,164c0.4-2.1,1.1-4.1,2.2-6l3.6,5.5L209,164z"/>
<path class="st13" d="M211.3,158c-1.1,1.8-1.8,3.9-2.2,6l5.8-0.4v-9.4C213.3,155.1,212.1,156.4,211.3,158z"/>
<path class="st2" d="M218.4,153.8c0.6,0.4,1.1,0.9,1.5,1.5c0.4,0.6,0.6,1.2,0.7,1.9l-5.8,6.2L218.4,153.8z"/>
<path class="st2" d="M209,169.7c-0.2-0.9-0.3-1.8-0.3-2.7c0-1,0.1-2.1,0.3-3.1l5.8-0.4L209,169.7z"/>
<path class="st2" d="M220.6,163.1c-0.4,2.1-1.1,4.1-2.2,6l-3.6-5.5L220.6,163.1z"/>
<path class="st2" d="M214.8,172.9c-0.5,0.4-1.1,0.6-1.8,0.6c-0.6,0-1.3-0.1-1.8-0.4l3.6-9.6V172.9z"/>
<path class="st2" d="M209,169.7l5.8-6.2l-3.6,9.6c-0.6-0.4-1.1-0.9-1.5-1.5C209.4,171.1,209.1,170.4,209,169.7z"/>
<path class="st2" d="M220.6,157.3c0.2,0.9,0.3,1.8,0.3,2.7c0,1-0.1,2.1-0.3,3.1l-5.8,0.4L220.6,157.3z"/>
<path class="st2" d="M218.4,169c-0.8,1.6-2.1,2.9-3.6,3.9v-9.4L218.4,169z"/>
<path class="st8" d="M211.8,177.7l6.1-3.5c0.3-0.2,0.6-0.1,0.6,0.3c0,0.2-0.1,0.4-0.2,0.5c-0.1,0.2-0.2,0.3-0.4,0.4l-6.1,3.5
	c-0.3,0.2-0.6,0.1-0.6-0.3c0-0.2,0.1-0.4,0.2-0.5C211.5,177.9,211.6,177.8,211.8,177.7z"/>
<path class="st18" d="M210.5,182.1l8.8-5.1c0.3-0.2,0.6-0.1,0.6,0.3c0,0.2-0.1,0.4-0.2,0.5s-0.2,0.3-0.4,0.4l-8.8,5.1
	c-0.3,0.2-0.6,0.1-0.6-0.3c0-0.2,0.1-0.4,0.2-0.5C210.2,182.3,210.3,182.2,210.5,182.1z"/>
<path class="st18" d="M210.5,185.7l8.8-5.1c0.3-0.2,0.6,0,0.6,0.3c0,0.2-0.1,0.4-0.2,0.5c-0.1,0.2-0.2,0.3-0.4,0.4l-8.8,5.1
	c-0.3,0.2-0.6,0.1-0.6-0.3c0-0.2,0.1-0.4,0.2-0.5C210.2,185.9,210.3,185.8,210.5,185.7z"/>
<path class="st18" d="M210.5,189.4l8.8-5.1c0.3-0.2,0.6,0,0.6,0.3c0,0.2-0.1,0.4-0.2,0.5c-0.1,0.2-0.2,0.3-0.4,0.4l-8.8,5.1
	c-0.3,0.2-0.6,0.1-0.6-0.3c0-0.2,0.1-0.4,0.2-0.5C210.2,189.6,210.3,189.5,210.5,189.4z"/>
<path class="st2" d="M236.8,141.4c0.5-0.4,1.1-0.6,1.8-0.6c0.6,0,1.3,0.1,1.8,0.4l-3.6,9.6V141.4z"/>
<path class="st2" d="M233.2,145.3c0.9-1.6,2.1-2.9,3.6-3.9v9.3L233.2,145.3z"/>
<path class="st2" d="M231,151.2c0.4-2.1,1.1-4.1,2.2-6l3.6,5.5L231,151.2z"/>
<path class="st2" d="M240.4,141.1c0.6,0.4,1.1,0.9,1.5,1.5c0.4,0.6,0.6,1.2,0.7,1.9l-5.8,6.2L240.4,141.1z"/>
<path class="st2" d="M231,157c-0.2-0.9-0.3-1.8-0.3-2.7c0-1,0.1-2.1,0.3-3.1l5.8-0.4L231,157z"/>
<path class="st2" d="M242.6,150.3c-0.4,2.1-1.1,4.1-2.2,6l-3.6-5.5L242.6,150.3z"/>
<path class="st2" d="M236.8,160.2c-0.5,0.4-1.1,0.6-1.8,0.6c-0.6,0-1.3-0.1-1.8-0.3l3.6-9.7V160.2z"/>
<path class="st2" d="M231,157l5.8-6.2l-3.6,9.6c-0.6-0.4-1.1-0.9-1.5-1.5C231.4,158.4,231.1,157.7,231,157z"/>
<path class="st13" d="M233.2,145.3c-1.1,1.8-1.8,3.9-2.2,6c-0.2,1-0.3,2.1-0.3,3.1c0,0.9,0.1,1.8,0.3,2.7c0.1,0.7,0.4,1.3,0.7,1.9
	c0.4,0.6,0.9,1.1,1.5,1.5l3.6-9.7v-9.3C235.3,142.4,234.1,143.7,233.2,145.3z"/>
<path class="st2" d="M242.6,144.6c0.2,0.9,0.3,1.8,0.3,2.7c0,1-0.1,2.1-0.3,3.1l-5.8,0.4L242.6,144.6z"/>
<path class="st2" d="M240.4,156.3c-0.8,1.6-2.1,2.9-3.6,3.9v-9.4L240.4,156.3z"/>
<path class="st8" d="M233.7,165l6.1-3.5c0.3-0.2,0.6-0.1,0.6,0.3c0,0.2-0.1,0.4-0.2,0.5c-0.1,0.2-0.2,0.3-0.4,0.4l-6.1,3.5
	c-0.3,0.2-0.6,0-0.6-0.3c0-0.2,0.1-0.4,0.2-0.5S233.6,165.1,233.7,165z"/>
<path class="st18" d="M232.4,169.4l8.7-5.1c0.3-0.2,0.6,0,0.6,0.3c0,0.2-0.1,0.4-0.2,0.5c-0.1,0.2-0.2,0.3-0.4,0.4l-8.7,5.1
	c-0.3,0.2-0.6,0.1-0.6-0.3c0-0.2,0.1-0.4,0.2-0.5C232.1,169.6,232.2,169.5,232.4,169.4z"/>
<path class="st18" d="M232.4,173l8.7-5.1c0.3-0.2,0.6-0.1,0.6,0.3c0,0.2-0.1,0.4-0.2,0.5s-0.2,0.3-0.4,0.4l-8.7,5.1
	c-0.3,0.2-0.6,0.1-0.6-0.3c0-0.2,0.1-0.4,0.2-0.5C232.1,173.3,232.2,173.1,232.4,173z"/>
<path class="st18" d="M232.4,176.6l8.7-5c0.3-0.2,0.6-0.1,0.6,0.3c0,0.2-0.1,0.4-0.2,0.5c-0.1,0.2-0.2,0.3-0.4,0.4l-8.7,5.1
	c-0.3,0.2-0.6,0-0.6-0.3c0-0.2,0.1-0.4,0.2-0.5C232.1,176.9,232.2,176.7,232.4,176.6z"/>
<path class="st2" d="M236.7,267.1c0-1.6-0.4-3.2-1.2-4.6c-0.8-1.4-1.9-2.7-3.2-3.6c-1.3-0.8-2.4-0.9-3.3-0.4
	c-5.2,2.6-41.5,25.9-43.8,27c-0.3,0.2-0.5,0.4-0.6,0.6c-0.1,0.3-0.2,0.6-0.2,0.9c0,0.8,0.2,1.6,0.6,2.3c0.4,0.7,0.9,1.3,1.6,1.8
	c0.2,0.2,0.5,0.3,0.8,0.3c0.3,0,0.6,0,0.9-0.1c3.7-2,39.5-17.3,46.8-21.2C236.1,269.6,236.6,268.6,236.7,267.1z"/>
<path class="st20" d="M235.2,262.1c-0.7-1.3-1.7-2.4-3-3.2c-1.2-0.8-2.4-0.9-3.2-0.5l-0.1,0.1c-4.7,2.4-31.7,19.6-40.8,25.3H188
	l-0.4,0.2l-0.1,0.1l-0.2,0.1l-0.2,0.1c-1,0.6-1.6,1-1.9,1.1c-0.1,0-0.1,0.1-0.2,0.2c-0.2,0.2-0.3,0.4-0.4,0.6
	c-0.1,0.2-0.1,0.5-0.1,0.7c0,0.2,0,0.3,0,0.5c0,0.1,0,0.1,0,0.2c0,0.1,0,0.2,0.1,0.3l0.1,0.3c0,0.1,0.1,0.2,0.1,0.3
	c0,0.1,0,0.1,0.1,0.2L235.2,262.1z"/>
<path class="st2" d="M186.7,291.1c-0.7-0.5-1.2-1.1-1.6-1.8c-0.4-0.7-0.6-1.5-0.6-2.3c0-1.5,1.1-2.1,2.4-1.3
	c0.7,0.5,1.2,1.1,1.6,1.8c0.4,0.7,0.6,1.5,0.6,2.3C189,291.3,187.9,291.9,186.7,291.1z"/>
<path class="st6" d="M175.8,292.1c0,0.6,0.2,1.2,0.5,1.8c0.3,0.6,0.7,1,1.2,1.4c0.2,0.1,0.4,0.2,0.6,0.3s0.4,0,0.7-0.1l8.8-4.7
	c0.2-0.1,0.3-0.3,0.4-0.5c0.1-0.2,0.1-0.4,0.1-0.6c0-0.6-0.2-1.2-0.5-1.8c-0.3-0.6-0.7-1-1.2-1.4c-0.2-0.1-0.4-0.2-0.6-0.3
	c-0.2,0-0.4,0-0.7,0.1l-8.8,4.7c-0.2,0.1-0.3,0.3-0.4,0.5C175.9,291.6,175.8,291.8,175.8,292.1z"/>
<path class="st7" d="M176.4,290.9c-0.2,0.1-0.3,0.3-0.4,0.5s-0.1,0.4-0.1,0.7c0,0.5,0.1,0.9,0.3,1.4l11.3-6c-0.3-0.4-0.6-0.7-1-1
	c-0.2-0.1-0.4-0.2-0.6-0.3c-0.2,0-0.4,0-0.7,0.1L176.4,290.9L176.4,290.9z"/>
<path class="st2" d="M187.1,299.9c0-5.6-3.7-11.2-11.2-15.5c-14.9-8.6-39-8.6-53.8,0c-7.4,4.3-11.2,9.9-11.2,15.5v10.4
	c0,5.6,3.7,11.2,11.2,15.5c14.9,8.6,39,8.6,53.8,0c7.4-4.3,11.2-9.9,11.2-15.5V299.9z M123.9,287.5c6.6-3.9,15.5-5.9,25.1-5.9
	c9.5,0,18.4,2.1,25.1,5.9c6,3.5,9.3,7.9,9.3,12.4c0,4.5-3.3,8.9-9.3,12.4c-6.6,3.9-15.5,5.9-25.1,5.9c-9.5,0-18.4-2.1-25.1-5.9
	c-6-3.5-9.3-7.9-9.3-12.4C114.6,295.4,117.9,291,123.9,287.5z"/>
<path class="st21" d="M122.1,315.4c14.9,8.6,39,8.6,53.8,0c14.9-8.6,14.9-22.5,0-31.1c-14.9-8.6-39-8.6-53.8,0
	C107.2,292.9,107.2,306.8,122.1,315.4z M114.6,299.9c0-4.5,3.3-8.9,9.3-12.4c6.6-3.9,15.5-5.9,25.1-5.9c9.5,0,18.4,2.1,25.1,5.9
	c6,3.5,9.3,7.9,9.3,12.4c0,4.5-3.3,8.9-9.3,12.4c-6.6,3.9-15.6,5.9-25.1,5.9c-9.5,0-18.4-2.1-25.1-5.9
	C117.9,308.8,114.6,304.4,114.6,299.9z"/>
<path class="st2" d="M114.6,299.9c0,1.8,0.5,3.6,1.5,5.2c1.5-2.6,4.2-5.1,7.8-7.2c6.6-3.9,15.5-5.9,25.1-5.9
	c9.5,0,18.4,2.1,25.1,5.9c3.7,2.1,6.3,4.6,7.8,7.2c0.9-1.6,1.5-3.4,1.5-5.2c0-4.5-3.3-8.9-9.3-12.4c-6.6-3.9-15.5-5.9-25.1-5.9
	c-9.5,0-18.5,2.1-25.1,5.9C117.9,291,114.6,295.4,114.6,299.9z"/>
<path class="st20" d="M114.6,299.9c0,1.8,0.5,3.6,1.5,5.2c1.5-2.6,4.2-5.1,7.8-7.2c6.6-3.9,15.5-5.9,25.1-5.9
	c9.5,0,18.4,2.1,25.1,5.9c3.7,2.1,6.3,4.6,7.8,7.2c0.9-1.6,1.5-3.4,1.5-5.2c0-4.5-3.3-8.9-9.3-12.4c-6.6-3.9-15.5-5.9-25.1-5.9
	c-9.5,0-18.5,2.1-25.1,5.9C117.9,291,114.6,295.4,114.6,299.9z"/>
<path class="st22" d="M123.9,292.2c6.6-3.9,15.5-5.9,25.1-5.9c9.5,0,18.4,2.1,25.1,5.9c4.9,2.9,8.1,6.4,9,10c-0.9,3.7-4.1,7.1-9,10
	c-6.6,3.9-15.6,5.9-25.1,5.9c-9.5,0-18.4-2.1-25.1-5.9c-5-2.9-8.1-6.4-9-10C115.9,298.5,119,295.1,123.9,292.2z"/>
<path class="st20" d="M140,321.2v10.4c-6.3-0.8-12.4-2.8-17.9-5.8c-7.4-4.3-11.2-9.9-11.2-15.5v-10.4c0-1.1,0.2-2.3,0.5-3.4
	c-1.8,6.7,1.8,13.8,10.7,18.9C127.6,318.5,133.7,320.4,140,321.2z"/>
<path class="st7" d="M321.5,258c0.5,0.2,0.5,1.1,0.6,2.8c0,1.3,0.2,3.6-1.3,4c-1.5,0.4-3.8,0.1-4.7-1.1c-1.2-1.5-2-2.9-3.7-4.8
	c-1.5-1.7-3.1-3.2-3.6-5.5c-0.5-2.1,0-2.9,1.4-3.5c1.9-0.8,4.9,2,6.4,2.4C317.9,252.6,321,257.8,321.5,258z"/>
<path class="st23" d="M321.6,256.4l0,2.1c-0.8,0.5-1.7,0.7-2.7,0.7c-0.9,0-1.9-0.3-2.7-0.7c-0.1-0.2-0.5-3-0.5-3L321.6,256.4z"/>
<path class="st7" d="M304.1,269.7c0,0,0.6,1.9,0.9,3.5c0.2,1.3,0.6,3.4,0.1,4.4c-0.5,0.9-2.2,1.5-4.9,1.5c-1.8-0.1-4.5,1.1-6.4,2.1
	c-1.9,1-6,1.4-8,1.1c-2.4-0.3-4.9-1.8-5.2-2.8c-0.4-1,0.2-2,5.9-4.3c0.1,0,8-2.4,10.8-5.4L304.1,269.7z"/>
<path class="st23" d="M304.2,267.5c0,0,0,1.5-0.1,2.5c0,0.9-1.1,2.2-3.9,2c-1.9-0.1-3.3-0.7-3.1-2.2l0.1-2.3L304.2,267.5z"/>
<path class="st6" d="M323.6,228.3c-0.4-3.8-1.1-7.5-2.2-11.1c0,0,1-9.5,1.5-18.5c0.6-9.7,1.2-14.7-0.7-28.7c0,0-29.8-2.7-30.6,8.6
	c-0.8,11.2,0.3,39.9,0.6,44.8c0.3,4.9,1,9.3,1.9,17.4c0.8,8,3.2,26.6,3.2,26.6c1.1,0.6,2.3,0.9,3.5,0.9c1.2,0,2.4-0.3,3.5-0.9
	c0,0,2.7-22.4,2.6-28.1c-0.1-4.2-0.7-8.4-1.9-12.5c0,0,0.8-9.3,1.5-17.3c0.8-8,1.4-11.9,1.5-15.4l0.7-0.3c0,0,0.4,13.9,0.6,18.9
	c0.3,5,0.9,9.7,2.2,18.9c1.1,8,4.3,25,4.3,25c3.5,2,5.7-0.1,5.7-0.1S324.4,235.3,323.6,228.3z"/>
<path class="st7" d="M308,194.1c0,0,7.7-3.6,11.6-6.9c0,0-3.6,4.9-8.3,7c0,0-2,17.2-2,16.9l-0.6-17L308,194.1z"/>
<path class="st23" d="M302.6,130l1.2,10.3l9.7-0.5l-1.1-12L302.6,130z"/>
<path class="st6" d="M317.2,134c3.6-0.2,5.5,0.4,7.1,3.5c1.6,3.1,2.3,12.4,2.8,17.2c0.6,4.8,0.7,8.2-1.3,8.7s-9.7,0.7-9.7,0.7
	L317.2,134z"/>
<path class="st8" d="M323.3,139.3c-0.5-2.9-4.3-5.9-7.9-5.3l-2.4,0.4c-0.4,1.7-5.2,2.8-9.7,1.7c-1.4,0.4-5.9,1.2-7,1.6
	c-3.3,1.1-4.6,4.3-5.1,14.9c0,0,0.3,24,0.1,28.8c8,3.4,16.5,3.5,21.2,2.6c9.8-1.9,11-5.9,11-5.9l-1.5-11
	C322.1,167.1,324.5,145.8,323.3,139.3z"/>
<path class="st6" d="M303,133.4l0.1,0.6c2,0.4,4,0.4,6,0c3.2-0.7,3.8-1.6,3.8-1.6l-0.1-0.8c0,0,0.8-0.3,1.2,0.9
	c0.2,0.5,0.3,1,0.5,1.5c0,0,0.4,2.2-3.4,3.3c-1.5,0.5-3.1,0.7-4.7,0.5c-1.6-0.2-3.1-0.7-4.5-1.5l-1.5,0.3c0,0,1.3-2.9,1.6-3.5
	c0.1-0.2,0.2-0.3,0.4-0.4c0.2-0.1,0.3-0.1,0.5-0.1L303,133.4z"/>
<path class="st8" d="M273.4,122.4l-19.3,10.1l9.6,26.2l18-10.1L273.4,122.4z"/>
<path class="st24" d="M272.5,124.9l-16.2,8.4l8.5,22.5l15.1-8.4L272.5,124.9z"/>
<path class="st9" d="M269.1,127.4c0,0-0.1-0.4-0.3-0.8c-0.2-0.4-1.5-0.2-3,0.6l-2.8,1.5c-1.5,0.8-2.6,1.7-2.4,2.2l0.3,0.8
	L269.1,127.4z"/>
<path class="st2" d="M268.8,124.2c-0.1-0.3-0.7-0.2-1.3,0.1l-1.1,0.6c0,0-0.7-1.7-3.2-0.5c-2.6,1.2-2,3.2-2,3.2l-1.2,0.6
	c-0.7,0.4-1.1,0.9-1,1.2l0.1,0.5l9.9-5.2L268.8,124.2z"/>
<path class="st2" d="M267.7,125.3c-0.9,0.5-1.3,0.7-1,1.4c0.3,0.7,0.6,1.3,0.6,1.3l-4.4,2.3c0,0-0.4-1-0.5-1.4s-0.5-0.6-1.2-0.2
	l-0.3-0.3l6.9-3.5L267.7,125.3z"/>
<path class="st13" d="M267.7,125.3c-0.9,0.5-1.3,0.7-1,1.4c0.3,0.7,0.6,1.3,0.6,1.3l-4.4,2.3c0,0-0.4-1-0.5-1.4s-0.5-0.6-1.2-0.2
	l-0.3-0.3l6.9-3.5L267.7,125.3z"/>
<path class="st2" d="M269.3,127.4l-0.3-0.8c-0.2-0.4-1.5-0.2-3,0.6l-2.8,1.5c-1.5,0.8-2.5,1.7-2.4,2.2l0.3,0.8L269.3,127.4z"/>
<path class="st25" d="M296.3,137.7c-4.4,0.4-6.3,1.2-9.7,7.2c-3.6,6.5-10.6,18.4-11.5,19.9c-1.2,2.1-1.5,5.2-0.4,7.1
	c1,1.8,4.1,2.6,7.7-1.4c4.2-4.8,12.1-16.5,12.1-16.5S301.3,145.2,296.3,137.7z"/>
<path class="st23" d="M276.6,173.3c-3.4-0.4-11.4-11.2-13.6-14.7c-1.8-2.9-4.1-5.3-6.9-7.3c-3.6-2.7-3.1-6.8-1.5-10.5
	c0.5-1.3,2.4-0.5,2.4-0.5l0.6,1.8l1.1,3.1c0.8,0.7,1.2,0.9,1.3,0.7c0.1-0.4-0.6-2.1-0.5-3.8c0-2.1,1.5-0.7,1.9,0
	c0.6,1.1,1.1,2.3,1.5,3.4c0.7,1.9,0.4,3.7,1.3,5c0.9,1.3,12.8,12.7,12.8,12.7L276.6,173.3z"/>
<path class="st6" d="M297.2,137.5c-2.7-0.1-5.9,0.4-8.4,3.6c-2.5,3.3-12.5,21-12.5,21l-5.6-5c-2.2,1.4-3.8,3.6-4.3,6.1
	c1.5,2.4,3.2,4.8,5.1,6.9c2.4,2.6,5,4.4,7.2,3.6c2.2-0.8,4.4-2.5,9.1-9.1c4.7-6.5,9.8-14.2,9.8-14.2S300.7,142.9,297.2,137.5z"/>
<path class="st26" d="M295.8,117.4c0,0-2.4,3.7-2.1,4c0.3,0.4,2.1,0.7,2.1,0.7L295.8,117.4z"/>
<path class="st7" d="M296.9,119.8c-0.6,0-1.1-0.2-1.6-0.5c-0.5-0.3-0.8-0.8-1.1-1.3c-0.2-0.5-0.3-1.1-0.2-1.7
	c0.1-0.6,0.4-1.1,0.8-1.5c0.4-0.4,0.9-0.7,1.5-0.8c0.6-0.1,1.1-0.1,1.7,0.2c0.5,0.2,1,0.6,1.3,1.1c0.3,0.5,0.5,1,0.5,1.6
	c0,0.8-0.3,1.5-0.9,2C298.4,119.5,297.7,119.8,296.9,119.8z M296.9,114.7c-0.4,0-0.9,0.1-1.3,0.4c-0.4,0.2-0.7,0.6-0.8,1
	c-0.2,0.4-0.2,0.9-0.1,1.3c0.1,0.4,0.3,0.8,0.6,1.2s0.7,0.5,1.2,0.6c0.4,0.1,0.9,0,1.3-0.1c0.4-0.2,0.8-0.5,1-0.8
	c0.2-0.4,0.4-0.8,0.4-1.3c0-0.6-0.2-1.2-0.7-1.6C298.1,114.9,297.5,114.7,296.9,114.7z"/>
<path class="st23" d="M302.5,107.2c-4.9,1-6.3,3.2-6.8,11c-0.5,8.2,0.4,10.7,1.4,11.8c0.7,0.8,4.7,0.9,6.8,0.3
	c2.5-0.7,8.3-2.7,10.9-6.8c3.2-4.8,4-11.4,0.6-14C310.7,105.7,304.5,106.8,302.5,107.2z"/>
<path class="st26" d="M302.7,130.6l-0.2-1.5c-1.5,0.8-3.3,1.2-5,1.1C298.4,130.7,300.8,130.8,302.7,130.6z"/>
<path class="st7" d="M294.3,116.3l8.7,1.1l-0.3,0.6l-8.4-1.1V116.3z"/>
<path class="st7" d="M294.9,110.4c0.4,0,0.8,0,1.1-0.1c-0.1,0.4-0.2,0.8-0.1,1.1c0.1,0.4,0.3,0.7,0.6,0.9c0.3,0.2,0.7,0.4,1.1,0.4
	c0.4,0.1,0.8,0,1.1-0.1c-0.3,0.5-0.4,1-0.2,1.5c0.1,0.6,0.5,1,0.9,1.4c0.5,0.3,1,0.5,1.6,0.5c0.1,1.1,0.1,2.3,1.3,2.8
	c0,0,0.8-3,3.3-2.6c2.5,0.4,2.9,3.6,1.3,5.6c-1.6,2-3.1,1.2-3.1,1.2c0.1,0.1,0.2,1,0.2,1.2c0.2,0.6,0.4,1.1,0.7,1.7
	c0.6,1.1,1.3,2,2.3,2.7c0.6,0.5,1.4,0.9,2.2,1.2c0.8,0.2,1.6,0.3,2.5,0.1c0.7-0.2,1.4-0.5,2-1c0.6-0.5,1-1.1,1.4-1.7
	c0.1-0.4,0.3-0.7,0.5-1c0.4-0.3,0.8-0.5,1.3-0.5c0.5-0.2,1-0.4,1.4-0.8c0.4-0.4,0.7-0.8,0.9-1.3c0.2-0.5,0.3-1,0.3-1.6
	c0-0.5-0.2-1-0.4-1.5c0.6-0.2,1.2-0.5,1.6-0.9c0.4-0.4,0.7-1,0.9-1.6c0.1-0.6,0.1-1.2-0.1-1.8c-0.2-0.6-0.6-1.1-1.1-1.5
	c0.7-0.5,1.3-1.1,1.6-1.9c0.3-0.8,0.4-1.7,0.2-2.5c-0.2-0.7-0.6-1.3-1.1-1.8c-0.5-0.5-1.1-0.8-1.8-1c-1-0.3-0.6-0.4-0.9-1.4
	c-0.2-0.7-0.6-1.3-1.1-1.7c-0.5-0.4-1-0.6-1.6-0.7c-0.6-0.1-1.2-0.1-1.8,0.1c-0.1-0.6-0.4-1.2-0.9-1.7c-0.4-0.5-1-0.8-1.6-1
	c-0.6-0.2-1.2-0.2-1.7-0.1c-0.4,0.1-1.2,0.5-1.4,0.9c-0.5-0.5-0.7-1.2-1.3-1.6c-0.4-0.3-0.9-0.5-1.4-0.7c-0.5-0.1-1.1-0.1-1.6,0
	c-0.5,0.1-1,0.3-1.4,0.6c-0.4,0.3-0.8,0.7-1,1.2c-0.4-0.5-1-0.8-1.6-1.1c-0.6-0.2-1.2-0.4-1.9-0.4c-0.6,0-1.3,0.2-1.8,0.5
	c-0.5,0.3-1,0.8-1.3,1.4c-0.3,0.6-0.4,1.2-0.3,1.8c0.1,0.6,0.3,1.2,0.8,1.7c-0.8,0.3-1.5,0.9-1.9,1.6c-0.2,0.4-0.3,0.9-0.3,1.3
	c0,0.5,0.2,0.9,0.5,1.2c0.2,0.3,0.6,0.6,1,0.7C294.6,110.4,294.8,110.4,294.9,110.4z"/>
<path class="st7" d="M302.4,120.5l0.1-3.4c-0.5,0-0.9,0.2-1.2,0.5c-0.3,0.3-0.5,0.7-0.5,1.2c0,0.5,0.2,0.9,0.5,1.2
	C301.5,120.3,301.9,120.5,302.4,120.5z"/>
</svg>
